<?xml version="1.0" encoding="UTF-8"?>
<!DOCTYPE svg PUBLIC "-//W3C//DTD SVG 1.1//EN" "http://www.w3.org/Graphics/SVG/1.1/DTD/svg11.dtd">
<!-- Creator: CorelDRAW 2017 -->
<svg xmlns="http://www.w3.org/2000/svg" xml:space="preserve" width="12.6998mm" height="24.8918mm" version="1.1" style="shape-rendering:geometricPrecision; text-rendering:geometricPrecision; image-rendering:optimizeQuality; fill-rule:evenodd; clip-rule:evenodd"
viewBox="0 0 1269.98 2489.18"
 xmlns:xlink="http://www.w3.org/1999/xlink">
 <defs>
  <style type="text/css">
   <![CDATA[
    .fil0 {fill:white}
   ]]>
  </style>
 </defs>
 <g id="Слой_x0020_1">
  <metadata id="CorelCorpID_0Corel-Layer"/>
  <path class="fil0" d="M147.4 1235.97l51.02 0 0 91.98 -51.02 0 0 -91.98zm141.74 86.23l-0.36 0 -5.66 5.75 -39.34 0 0 -91.98 45.36 0 0 5.75 -5.67 0 5.67 80.48zm-184.27 0l0 5.75 -48.18 0 0 -91.98 48.18 0 0 5.75 0 0 0 80.48zm138.91 -201.21l45.36 0 0 91.98 -45.36 0 0 -91.98zm-187.09 0l48.18 0 0 91.98 -48.18 0 0 -91.98zm90.7 5.75l0 -5.75 51.03 0 0 92.16 -51.03 0 0 -5.75c0,0 0,-0.17 0,-0.17 0,-19.8 0,-80.49 0,-80.49zm96.39 -126.47l45.36 0 0 103.48 -45.36 0 0 -103.48zm-96.38 0l51.02 0 0 103.48 -45.35 0 -5.68 0 0.01 -5.75 0 -97.73zm-42.53 103.48l-48.18 0 0 -103.48 48.18 0 0 5.75 0 0 0 97.73zm42.53 -206.96l51.02 0 0 80.48 -51.02 0 0 -80.48zm141.74 86.23l-45.36 0 0 -86.23 45.36 0 0 5.75 0 80.48zm-184.27 -11.5l0 0 0 5.75 0 0 0 5.75 -48.18 0 0 -86.23 48.18 0 0 5.75 0 0 0 68.98zm235.3 -442.65l-45.36 0 0 57.49 45.36 0 0 28.74 -45.36 0 0 63.24 45.36 0 0 17.24 -45.36 0 0 63.24 45.36 0 0 17.25 -45.36 0 0 63.23 45.36 0 0 11.5 -334.51 0 0 643.86c68.03,-37.36 215.44,-89.1 425.22,-97.73l0 -678.35 147.41 0 0 -344.92 -238.12 0 0 155.21z"/>
  <path class="fil0" d="M686.02 1253.21l45.35 0 0 68.99 -45.35 0 0 -68.99zm0 -97.72l45.35 0 0 57.48 -45.35 0 0 -57.48zm0 -103.48l45.35 0 0 63.23 -45.35 0 0 -63.23zm39.69 -28.75l-39.69 0 0 -68.98 45.35 0 0 63.24 0 5.75 -5.66 -0.01zm-39.69 -166.71l45.35 0 0 57.49 -45.35 0 0 -57.49zm-238.13 -103.48l0 5.75 5.67 0 198.44 0 0 57.49 -198.44 0 -5.67 0 0 5.75 0 28.74 0 5.75 5.67 0 198.44 0 0 57.49 -204.11 0 0 34.49 0 5.75 5.67 0 198.44 0 0 68.98c-67.94,0 -136.59,0 -204.11,0l0 23 0 5.75 5.67 0 198.44 0 0 63.23 -198.44 0 -5.67 0 0 5.75 0 28.75 0 5.75 5.67 0 198.44 0 0 57.48 -198.44 0 -5.67 0.01 0 5.74 0 178.21c115.01,0 224.69,0 334.51,0l0 -666.85 -334.51 0 0 22.99z"/>
  <path class="fil0" d="M1201.95 1327.95l34.02 0 0 63.23 -34.02 0 0 -63.23zm-62.36 0l34.02 0 0 63.23 -34.02 0 0 -63.23zm-39.86 57.48l0 0 0 5.75 -22.5 0 0 -63.23 22.5 0 0 5.74 0 0 0 51.74zm102.22 -229.94l34.02 0 0 149.46 -34.02 0 0 -149.46zm-62.36 0l34.02 0 0 149.46 -34.02 0 0 -149.46zm-39.69 149.46c0,0 -22.67,0 -22.67,0l0 -149.46 23.02 0c0,0 -0.35,121.53 -0.35,149.46zm102.05 -241.45l34.02 0 0 68.99 -34.02 0 0 -68.99zm-62.36 0l34.02 0 0 68.99 -34.02 0 0 -68.99zm-40.04 68.99l-22.32 0 0 -68.99 22.67 0c0,28.66 -0.35,52.39 -0.35,68.99zm-101.7 -652.48l-34.02 0 0 937.04c86.49,0 249.47,66.11 306.16,103.48l0 -494.39 -249.46 0 0 -546.13 -22.68 0 0 0z"/>
  <polygon class="fil0" points="878.78,1403.04 935.48,1407.35 935.48,488.64 935.48,480.01 929.81,480.01 878.78,480.01 "/>
  <polygon class="fil0" points="793.74,1394.06 850.44,1397.29 850.44,485.76 850.44,480.01 844.76,480.01 793.74,480.01 "/>
  <path class="fil0" d="M595.3 2313.86c0,0 -96.38,2.87 -96.38,2.87 0,0 62.78,58.32 73.71,68.98 0,0 -22.69,103.48 -22.69,103.48 12.94,-9.54 85.05,-51.74 85.05,-51.74l11.34 0c0,0 85.04,51.74 85.04,51.74 0,0 -22.67,-103.48 -22.67,-103.48 0,0 73.7,-68.98 73.7,-68.98 0,0 -96.38,-5.75 -96.38,-5.75 -16.32,-28.22 -42.56,-96.96 -42.56,-96.96 0,0 -48.16,90.84 -48.16,99.84z"/>
  <path class="fil0" d="M521.6 1741.86l107.72 0 5.67 5.74 0 23 -5.67 5.75 -107.72 0c0,-10.36 0,-20.48 0,-34.49zm0 -68.99l-0.01 -5.75 102.06 0c0,0 5.67,6.47 5.67,6.47l0 25.15 -5.67 2.87 -102.05 0 0 -5.75 0 -17.24 0 -5.75zm-45.36 137.97l5.67 0 0 5.75 153.08 0c25.51,0 45.36,-8.62 45.36,-34.5l0 -40.23c0,-5.75 -2.84,-23 -22.68,-23 0,0 17,-5.74 17.01,-17.25l0 -40.24c-0.01,-11.49 -17.02,-28.74 -28.35,-28.74l-170.09 0 0 178.21z"/>
  <path class="fil0" d="M498.92 2012.05l-102.06 0 0 -40.25 96.39 0 11.34 5.75 0 28.75 -5.67 5.75zm3.4 -74.74l-105.46 0 0 -34.49 105.46 0 5.67 5.75 0 17.25 -5.67 11.49zm-156.48 -74.73l0 5.75 0 178.21 160.87 0c19.84,0 37.76,-9.36 37.76,-26.61l0 -51.33c0,-8.62 -3.03,-14.04 -17.21,-14.04 8.51,0 17.01,-11.5 17.01,-17.25l0 -45.99c0,0 -14.17,-28.74 -51.02,-28.74l-141.74 0 -5.67 0z"/>
  <path class="fil0" d="M1020.53 1816.59l73.7 0c0,0 110.66,-143.72 113.4,-143.72l0 143.72 45.35 0 5.67 0 0 -5.75 0 -172.46 0 -5.75 -5.67 0 -73.71 0c-1.1,2.53 -110.33,143.72 -113.39,143.72l0 -143.72 -45.35 0 0 183.96z"/>
  <path class="fil0" d="M391.2 1776.35l-92.84 0c-11.35,0 -14.89,-14.01 -14.89,-19.76l0 -66.83c0,-16.89 5.67,-22.64 17.01,-22.64l90.72 0c11.33,0 17,8.63 17.01,23l0 63.23c0,17.25 -5.68,23 -17.01,23zm-153.08 -109.23l0 109.23c-0.01,23 17,40.24 45.35,40.24l124.74 0c31.18,0 45.35,-11.5 45.35,-40.24l0 -106.35c0,-23 -22.68,-43.11 -56.7,-43.12l-107.72 0c-28.35,0 -51.02,20.12 -51.02,40.24z"/>
  <polygon class="fil0" points="578.3,1862.58 578.29,1868.33 578.29,2046.54 771.06,2046.54 771.06,2012.05 629.32,2012.05 629.32,1971.8 765.39,1971.8 765.39,1937.31 629.32,1937.31 629.32,1902.82 771.06,1902.82 771.06,1868.33 771.06,1862.58 765.39,1862.58 583.96,1862.58 "/>
  <polygon class="fil0" points="11.33,1816.59 56.69,1816.59 56.69,1741.86 164.41,1741.86 164.41,1810.84 164.4,1816.59 170.08,1816.59 209.76,1816.59 215.44,1816.59 215.44,1810.84 215.44,1632.63 164.41,1632.63 164.41,1701.61 56.69,1701.61 56.69,1632.63 11.33,1632.63 "/>
  <path class="fil0" d="M856.11 1776.35l-96.38 0 0 -5.75 0 0 0 -34.49 85.03 0c5.68,0 11.35,2.88 11.35,11.49l0 23 0 5.75zm-147.41 40.24l147.41 0c45.35,0 43.92,-34.5 45.35,-34.5l0 -45.98c-1.89,0 0,-40.25 -62.36,-40.25l-79.56 0 0 -5.74 0.19 0 0 -57.49 -51.03 0 0 183.96z"/>
  <path class="fil0" d="M799.41 2046.54l45.35 0 0 -74.74 28.36 0c3.01,3.07 73.7,74.43 73.7,74.74l68.03 0c0,0 -107.72,-91.98 -107.72,-91.98l0 -5.75c0,0 102.06,-86.23 102.06,-86.23l-62.37 0c0,0 -73.7,68.98 -73.7,68.98l-28.36 0 0 -68.98 -45.35 0 0 183.96z"/>
  <path class="fil0" d="M62.35 97.72l-22.67 0 0 -57.49 34.02 0 5.66 0 0 43.12c0,5.74 -5.67,14.37 -17.01,14.37zm-62.36 -97.73l0 218.45c17,-2.87 39.69,-11.5 39.69,-11.5l0 -68.98c20.04,0 43.42,-2.05 57.68,-10.97 15.98,-10.01 21.69,-27.42 21.69,-35.02l0 -57.49c0,-14.37 -17.01,-34.49 -34.01,-34.49l-85.05 0z"/>
  <path class="fil0" d="M176.35 59.26l5.67 0 9.79 42.33 -28.04 0 12.58 -42.33zm-68.63 130.44c0.3,-1.23 36.84,-5.75 34.01,-5.75 0,0 17.9,-45.99 17.01,-45.99l39.69 0c0,0 5.67,28.74 5.67,28.74l39.68 -6.82c0,0 -45.35,-159.89 -45.35,-159.89l-39.69 0c0,0 -51.02,189.71 -51.02,189.71z"/>
  <path class="fil0" d="M294.81 28.73l5.67 0 22.68 0c5.67,0 11.33,5.75 11.34,11.5l0 11.5c-0.01,5.75 -5.67,11.49 -11.34,11.49l-28.35 0c0,-15.97 0,-24.1 0,-34.49zm-39.69 -28.74l0.01 5.75 0 149.47 38.99 -2.82 0.69 -59.1 39.61 -0.17 0.08 50.59 39.69 0 0 -5.75 0 0 0 -11.5 0 0 0 -29.64c-0.01,-24.97 -17.02,-13.47 -17.01,-24.07 5.67,-3.83 11.33,-6.65 17.01,-15.27l0 -28.75c-0.01,-14.37 -11.34,-28.74 -34.02,-28.74l-79.38 0 -5.67 0z"/>
  <path class="fil0" d="M1043.21 68.97l0 97.73c0,0 102.04,11.5 102.04,11.5l0 -28.75c0,0 -62.36,-11.49 -62.36,-11.49l0 -34.49c0,0 51.03,0 51.03,0 0,0 0,-18.73 0,-34.5l-34.02 0 -17.01 0 0 -34.49 11.34 0 51.02 0.01 0 -34.5 -102.04 0 0 68.98z"/>
  <polygon class="fil0" points="714.36,718.58 765.39,718.58 765.39,480.01 714.36,480.01 "/>
  <path class="fil0" d="M802.25 40.23c0,-8.62 5.66,-11.5 11.34,-11.5l34.01 0c8.51,0 11.34,5.75 11.34,11.5l0 60.37c0,5.74 -8.5,8.62 -11.34,8.62l-36.85 0c-5.67,0 -8.5,-8.62 -8.5,-11.5l0 -57.49zm-2.84 -40.24c-21.27,0 -34.02,28.74 -34.02,34.49l0 63.24c14.18,25.87 42.52,40.24 62.36,40.24l23.03 0c31.19,-2.87 43.64,-35.23 45.21,-51.05l0 -37.72c-3.34,0 -5.86,-40.58 -34.22,-49.2l-62.36 0 0 0z"/>
  <path class="fil0" d="M396.86 137.96l39.69 -5.75 0 -51.74 5.68 0c0,0 28.34,45.99 28.34,45.99l56.69 0c0,0 -51.02,-57.49 -51.02,-57.49l0 -11.49c0,0 45.36,-45.99 45.36,-45.99l0 -11.5 -45.36 0c0,0 -34.01,45.99 -34.01,45.99l-5.68 0 0 -45.99 -39.69 0c0,48.74 0,101.42 0,137.97z"/>
  <polygon class="fil0" points="617.98,126.46 652,126.46 657.66,126.46 657.67,120.71 657.67,74.73 708.7,74.73 708.7,126.46 748.38,126.46 748.38,-0.01 708.7,-0.01 708.7,51.73 657.67,51.73 657.67,-0.01 617.98,-0.01 "/>
  <path class="fil0" d="M1167.94 195.45c0,0 102.05,22.99 102.05,22.99l0 -40.24c0,0 -62.36,-11.5 -62.36,-11.5l0 -160.96 -5.68 0 0 -5.75 -34.01 0 0 195.46z"/>
  <polygon class="fil0" points="901.46,-0.01 901.46,5.74 901.46,22.99 901.46,28.73 907.13,28.73 946.82,28.73 946.82,143.71 986.51,151.25 986.51,28.73 992.18,28.73 1026.2,28.73 1031.86,28.73 1031.86,5.74 1031.86,-0.01 1026.2,-0.01 907.13,-0.01 "/>
  <polygon class="fil0" points="941.15,1816.59 986.51,1816.59 986.51,1632.63 941.15,1632.63 "/>
  <path class="fil0" d="M1128.25 1546.4c0,0 -51.02,120.72 -51.02,120.72l28.34 0c0,0 68.04,-90.36 68.04,-91.98 0,0 -45.36,-28.74 -45.36,-28.74z"/>
  <path class="fil0" d="M515.93 54.6l0 28.75 68.03 0 5.67 0 0 -2.88 0 -25.87c0,0 -73.7,0 -73.7,0z"/>
  <path class="fil0" d="M280.96 2291.05c0,0 -65.53,1.95 -65.53,1.95 0,0 42.69,39.66 50.12,46.91 0,0 -15.43,70.36 -15.43,70.36 8.8,-6.48 57.83,-35.18 57.83,-35.18l7.71 0c0,0 57.83,35.18 57.83,35.18 0,0 -15.42,-70.36 -15.42,-70.36 0,0 50.12,-46.91 50.12,-46.91 0,0 -65.54,-3.91 -65.54,-3.91 -11.1,-19.19 -29.39,-66.6 -29.39,-66.6 0,0 -32.3,62.44 -32.3,68.56z"/>
  <path class="fil0" d="M941.48 2291.05c0,0 -65.53,1.95 -65.53,1.95 0,0 42.69,39.66 50.12,46.91 0,0 -15.43,70.36 -15.43,70.36 8.8,-6.48 57.83,-35.18 57.83,-35.18l7.71 0c0,0 57.83,35.18 57.83,35.18 0,0 -15.42,-70.36 -15.42,-70.36 0,0 50.12,-46.91 50.12,-46.91 0,0 -65.54,-3.91 -65.54,-3.91 -7.36,-12.73 -30.85,-66.45 -30.85,-66.45 0,0 -30.84,62.29 -30.84,68.41z"/>
 </g>
</svg>
