<?xml version="1.0" encoding="UTF-8"?>
<!DOCTYPE svg PUBLIC "-//W3C//DTD SVG 1.1//EN" "http://www.w3.org/Graphics/SVG/1.1/DTD/svg11.dtd">
<!-- Creator: CorelDRAW 2017 -->
<svg xmlns="http://www.w3.org/2000/svg" xml:space="preserve" width="273" height="72" version="1.1" style="shape-rendering:geometricPrecision; text-rendering:geometricPrecision; image-rendering:optimizeQuality; fill-rule:evenodd; clip-rule:evenodd"
viewBox="0 0 20843.13 5381.97"
 xmlns:xlink="http://www.w3.org/1999/xlink">
 <defs>
  <style type="text/css">
   <![CDATA[
    .fil0 {fill:#A2D9F7}
    .fil3 {fill:#0D8CC0;fill-rule:nonzero}
    .fil2 {fill:url(#id0)}
    .fil1 {fill:url(#id1)}
   ]]>
  </style>
  <linearGradient id="id0" gradientUnits="userSpaceOnUse" x1="11118.03" y1="-1140.78" x2="-3049.22" y2="6139.57">
   <stop offset="0" style="stop-opacity:1; stop-color:#00A0E3"/>
   <stop offset="1" style="stop-opacity:1; stop-color:#8FBF2D"/>
  </linearGradient>
  <linearGradient id="id1" gradientUnits="userSpaceOnUse" x1="1661.86" y1="2989.93" x2="90.41" y2="7129.19">
   <stop offset="0" style="stop-opacity:1; stop-color:#00A0E3"/>
   <stop offset="0.411765" style="stop-opacity:1; stop-color:#7DC577"/>
   <stop offset="1" style="stop-opacity:1; stop-color:#FAEA0A"/>
  </linearGradient>
 </defs>
 <g id="Слой_x0020_1">
  <metadata id="CorelCorpID_0Corel-Layer"/>
  <g id="_2340757402752">
   <g>
    <path class="fil0" d="M3094.05 4642.92c65.68,0 125.66,24.3 171.49,64.4 -21.02,7.67 -41.75,14.93 -62.08,21.74l-6.24 2.08c-30.15,-18.09 -65.44,-28.5 -103.16,-28.5 -75.13,0 -140.62,41.25 -175.07,102.33 -23.45,4.62 -47.16,8.87 -71.02,12.67 35.49,-101.73 132.25,-174.73 246.09,-174.73z"/>
    <path class="fil0" d="M3094.05 4432.02c154.96,0 292.43,74.79 378.37,190.2 -34.4,15.76 -68.7,30.65 -102.59,44.6 -66.64,-77.58 -165.47,-126.75 -275.78,-126.75 -176.13,0 -322.95,125.31 -356.3,291.64 -36.9,3.48 -73.9,5.65 -110.65,6.32 31.88,-229.39 228.76,-406 466.95,-406z"/>
    <path class="fil0" d="M3094.05 4127.99c271.67,0 510.69,139.71 649.2,351.18 -50.49,30.75 -102.77,59.85 -155.64,87.08 -107.68,-157.28 -288.55,-260.54 -493.57,-260.54 -306.51,0 -559.12,230.77 -593.7,527.98 -60.48,-5.49 -119.29,-16.19 -174.98,-33.24 50.41,-379.58 375.32,-672.45 768.68,-672.45z"/>
    <path class="fil0" d="M3094.05 3802.25c379.31,0 713.8,191.81 911.86,483.7 -59.18,54.22 -127.38,105.83 -200.66,153.99 -151.51,-231.99 -413.44,-385.32 -711.2,-385.32 -424.98,0 -777.05,312.34 -839.16,719.97 -28.12,-12.18 -55.19,-26.29 -80.94,-42.58 -54.54,-34.51 -101.07,-77.6 -139.57,-128.98 130.8,-462.14 555.64,-800.78 1059.68,-800.78z"/>
   </g>
   <path class="fil0" d="M2.8 3050.26c51.13,37.51 83.05,99.14 79.72,167.22 -2.78,57.16 -29.86,107.38 -70.75,141.16 -2.4,-19.03 -4.39,-38.2 -6.12,-57.43 18.75,-23.76 30.55,-53.38 32.14,-85.92 1.99,-40.97 -12.57,-78.9 -37.81,-107.34 0.3,-9.73 0.58,-19.48 1.06,-29.26 0.47,-9.52 1.12,-18.98 1.75,-28.44z"/>
   <path class="fil0" d="M11.32 2959.6c95.41,47.7 158.74,148.49 153.2,261.88 -4.77,97.88 -59.7,181.43 -138.71,227.02 -4.21,-22.73 -7.89,-45.63 -11.13,-68.66 49.68,-36.85 83.06,-94.85 86.31,-161.45 3.83,-78.6 -35.25,-149.35 -96.65,-189.55 1.86,-23.23 4.15,-46.32 6.97,-69.24z"/>
   <g>
    <path class="fil0" d="M208.2 2202.25c19.03,44.64 29.58,93.77 29.58,145.36 0,135.52 -72.69,254.05 -181.2,318.75 10,-47.66 21.49,-94.77 34.46,-141.27 38.66,-48.76 61.75,-110.41 61.75,-177.48 0,-3.55 -0.09,-7.1 -0.23,-10.63 17.16,-45.62 35.65,-90.58 55.64,-134.73z"/>
    <path class="fil0" d="M291.83 2036.44c63.94,87.18 101.74,194.75 101.74,311.17 0,235.45 -154.52,434.81 -367.68,502.23 5.84,-46.69 13.18,-92.91 21.83,-138.67 133.47,-66.51 225.16,-204.31 225.16,-363.56 0,-67.31 -16.39,-130.79 -45.39,-186.68 20.18,-42.25 41.67,-83.74 64.35,-124.49z"/>
   </g>
   <g>
    <path class="fil0" d="M4255.47 2394.94c47.21,0 85.48,38.27 85.48,85.48 0,47.21 -38.27,85.48 -85.48,85.48 -47.21,0 -85.48,-38.27 -85.48,-85.48 0,-47.21 38.27,-85.48 85.48,-85.48zm0 19.58c36.4,0 65.9,29.5 65.9,65.9 0,36.4 -29.49,65.9 -65.9,65.9 -36.39,0 -65.9,-29.49 -65.9,-65.9 0,-36.39 29.5,-65.9 65.9,-65.9z"/>
    <path class="fil0" d="M4255.47 2325.76c85.42,0 154.67,69.24 154.67,154.66 0,85.42 -69.25,154.66 -154.67,154.66 -85.41,0 -154.66,-69.24 -154.66,-154.66 0,-85.42 69.25,-154.66 154.66,-154.66zm0 35.45c65.84,0 119.21,53.37 119.21,119.21 0,65.84 -53.37,119.21 -119.21,119.21 -65.84,0 -119.21,-53.37 -119.21,-119.21 0,-65.84 53.37,-119.21 119.21,-119.21z"/>
    <path class="fil0" d="M4255.47 2226.04c29.81,0 58.42,5.14 84.99,14.57 11.94,27.73 23.3,55.78 34.14,84.08 -33.02,-25.3 -74.31,-40.35 -119.13,-40.35 -108.29,0 -196.09,87.8 -196.09,196.09 0,108.3 87.8,196.09 196.09,196.09 89.13,0 164.36,-59.46 188.21,-140.87 7.94,29.03 15.44,58.25 22.24,87.73 -45.78,67.26 -122.95,111.43 -210.45,111.43 -140.5,0 -254.38,-113.88 -254.38,-254.38 0,-140.5 113.88,-254.38 254.38,-254.38z"/>
    <path class="fil0" d="M4255.47 2119.18c9.74,0 19.41,0.41 28.95,1.16 15.06,30 29.54,60.36 43.29,91.11 -23.04,-6.18 -47.26,-9.49 -72.24,-9.49 -153.77,0 -278.45,124.69 -278.45,278.45 0,153.81 124.69,278.45 278.45,278.45 87.87,0 166.21,-40.69 217.24,-104.26 7.06,32.78 13.4,65.79 19.03,99.08 -63.34,54.81 -145.93,87.97 -236.27,87.97 -199.52,0 -361.24,-161.72 -361.24,-361.24 0,-199.52 161.72,-361.24 361.24,-361.24z"/>
   </g>
   <path class="fil0" d="M3604.16 1314.03c-59.29,94.04 -164.05,156.51 -283.42,156.51 -184.92,0 -334.83,-149.91 -334.83,-334.82 0,-47.67 9.98,-93 27.94,-134.05 24.24,8.51 48.31,17.34 72.15,26.64 -14.98,32.7 -23.35,69.08 -23.35,107.41 0,142.55 115.57,258.09 258.1,258.09 93.58,0 175.52,-49.79 220.77,-124.34 21.14,14.51 42.02,29.37 62.64,44.57zm-1245.79 -437.33c78.37,3.17 155.74,10.28 231.85,21.23 -24.36,74.87 -37.58,154.78 -37.58,237.78 0,424.24 343.92,768.09 768.1,768.09 247.39,0 467.4,-116.95 607.87,-298.56 52.47,57.09 102.06,116.85 148.49,179.11 -182.75,212.9 -453.79,347.79 -756.36,347.79 -550.32,0 -996.44,-446.13 -996.44,-996.44 0,-89.61 11.9,-176.42 34.07,-259.02zm393.4 50.53c45.75,10.04 91.02,21.34 135.68,34.11 -21.7,53.88 -33.68,112.72 -33.68,174.38 0,257.92 209.09,466.97 466.98,466.97 161.63,0 304.05,-82.09 387.88,-206.87 35.84,29.82 70.73,60.74 104.64,92.68 -109.94,153.2 -289.56,253.02 -492.52,253.02 -334.57,0 -605.81,-271.22 -605.81,-605.8 0,-73.26 13.01,-143.48 36.83,-208.48zm1381.53 936.05c35.44,52.03 68.76,105.62 99.85,160.64 -217.45,28.49 -387.14,208.66 -399.35,430.83 -159.06,61.93 -332.08,95.94 -513.06,95.94 -326.02,0 -626.25,-110.33 -865.52,-295.61 8.77,-67.64 13.34,-136.62 13.34,-206.67 0,-88.25 -7.3,-174.8 -21.12,-259.14 198.96,265.43 516.09,437.15 873.3,437.15 322.84,0 612.86,-140.27 812.56,-363.15zm-2161.13 -969.62c94.75,-12.31 191.31,-18.77 289.36,-18.96 -20.54,83.64 -31.52,171.04 -31.52,261.01 0,26.54 1.01,52.87 2.87,78.95 -72.79,-118.11 -160.58,-225.99 -260.71,-321z"/>
   <path class="fil0" d="M4516.58 3310.01c-80.38,26.1 -138.49,101.58 -138.49,190.68 0,66.62 32.53,125.67 82.57,162.12 4.01,-16.63 7.81,-33.35 11.45,-50.12 -29.62,-28.15 -48.08,-67.91 -48.08,-112 0,-61.52 35.97,-114.64 88,-139.51 1.71,-17 3.21,-34.05 4.55,-51.17zm-270.24 -371.54c-192.02,113.69 -320.8,322.89 -320.8,562.22 0,264.24 156.93,491.8 382.68,594.59 -27.75,58.77 -57.96,116.15 -90.51,172.01 -287.39,-135.51 -486.31,-427.8 -486.31,-766.6 0,-257.76 115.14,-488.59 296.76,-643.96 62.92,44.44 137.46,73.52 218.18,81.74zm266.08 -30.69c4.48,45.13 7.46,90.68 9.23,136.54 -227.13,28.03 -402.95,221.67 -402.95,456.36 0,184.15 108.24,342.97 264.55,416.4 -15.92,42.92 -33.15,85.2 -51.55,126.84 -206.29,-93.88 -349.72,-301.81 -349.72,-543.23 0,-307.14 232.1,-560 530.45,-592.9zm10.97 234.37c-0.14,28.4 -0.85,56.66 -1.99,84.8 -127,26.38 -222.44,138.91 -222.44,273.73 0,103.89 56.65,194.54 140.77,242.74 -7.66,27.27 -15.89,54.3 -24.53,81.15 -118.26,-59.76 -199.36,-182.34 -199.36,-323.88 0,-181.57 133.42,-331.97 307.55,-358.53z"/>
   <path class="fil0" d="M1179.56 1146.3c435.06,71.11 767.08,448.66 767.08,903.83 0,407.22 -265.77,752.31 -633.31,871.43 22.4,-72.06 34.45,-148.64 34.45,-228.07 0,-4.12 -0.08,-8.22 -0.15,-12.32 230.77,-116.12 389.11,-355.06 389.11,-631.04 0,-389.92 -316.07,-706.03 -706.04,-706.03 -69.62,0 -136.87,10.12 -200.4,28.9 108.89,-85.67 225.78,-161.59 349.25,-226.71z"/>
   <path class="fil0" d="M1716.13 944.63c369.29,229.47 615.24,638.73 615.24,1105.5 0,428.82 -207.57,809.14 -527.68,1046.07 -104.39,-53.15 -222.52,-83.13 -347.68,-83.13 -65.22,0 -128.54,8.17 -189,23.48 2.23,-4.48 4.45,-8.98 6.6,-13.52 436.36,-108.56 759.72,-502.92 759.72,-972.9 0,-458.96 -308.41,-845.91 -729.33,-964.89 131.25,-59.36 269.12,-106.61 412.15,-140.61z"/>
   <path class="fil0" d="M1030.33 1741.65c170.11,0 308.02,137.91 308.02,308.02 0,90.36 -38.92,171.63 -100.9,227.97 -15.12,-17.36 -31.65,-34.13 -49.65,-50.29 49.05,-43.5 79.96,-106.97 79.96,-177.68 0,-131.11 -106.3,-237.44 -237.44,-237.44 -122.66,0 -223.63,93.08 -236.13,212.44 -24.08,-7.86 -46.72,-15.56 -68.13,-23.16 23.13,-147.23 150.53,-259.87 304.26,-259.87z"/>
   <path class="fil0" d="M1030.33 1491.95c308.03,0 557.73,249.7 557.73,557.73 0,187.87 -92.89,354.04 -235.24,455.1 -10.58,-44.59 -25.8,-86.46 -46.18,-125.75 93.91,-78.86 153.61,-197.12 153.61,-329.35 0,-237.42 -192.47,-429.92 -429.92,-429.92 -205.38,0 -377.12,144.07 -419.73,336.63 -42.83,-18.65 -80.8,-37.7 -117.11,-58.36 66.05,-234.33 281.38,-406.07 536.85,-406.07z"/>
   <path class="fil1" d="M690.9 4719.47c-249.89,-243.02 -414.91,-575.16 -441.57,-950.2 -9.38,-132.06 -1.02,-261.3 23.04,-385.35 12.47,-88.84 32.24,-177.97 59.4,-266.96 9.42,-30.9 19.27,-62.96 29.24,-95.82 65.66,-216.23 137.67,-468.57 142.46,-667.51 0.41,-16.71 0.31,-33.28 -0.25,-49.73 26.11,15.79 56.51,25.14 88.91,25.91 99.47,2.36 182.04,-76.41 184.39,-175.89 0.11,-4.92 0.03,-9.85 -0.25,-14.75 218.17,86.38 436.06,187.11 455.7,458.17 9,124.24 -18.96,260.25 -59.65,393.25 -5.39,17.59 -6.5,21.45 -9.97,33.28 -274.86,78.81 -476.03,331.97 -476.03,632.14 0,363.19 294.44,657.62 657.62,657.62 68.81,0 255.72,-6.22 255.72,-103.86 0,-42.04 -34.08,-76.12 -76.1,-76.12 -45.57,0 -107.72,29.27 -179.62,29.27 -279.94,0 -506.89,-226.92 -506.89,-506.9 0,-266.19 205.25,-484.5 466.11,-505.27 325.84,-29.06 660.43,177.26 1028.21,177.26 282.64,0 690.53,-123.25 957.63,-221.31 150.44,-55.21 307.32,-129.29 454.54,-208.04l163.79 -94.28c13.83,-8.83 37.2,-28.36 57.73,-31.26 -28.55,54.79 -207.16,206.25 -252.09,240.99 -174.94,135.36 -367.86,238.22 -570.24,327.85 -513.8,227.58 -1368.28,254.45 -1368.28,948.84 0,84.51 15.55,165.4 43.87,239.98 19.73,56.14 46.47,105.59 79.11,148.9 468.47,665.15 1800.01,136.71 2254.3,-317.59l39.26 -37.81c-20.68,32.88 -40.3,66.17 -64.38,96.74 -376.86,536.63 -983.04,905.47 -1688.12,955.58 -620.14,44.08 -1323.96,-183.85 -1747.61,-657.12zm105.43 -2255.65c-4.22,3.37 -9.56,5.36 -15.39,5.36 -13.67,0 -24.77,-11.08 -24.77,-24.77 0,-6.67 2.66,-12.74 6.95,-17.17 2.84,-2.95 6.2,-5.91 9.17,-8.83 9.76,-9.42 20.86,-17.27 32.97,-23.34 65.82,-32.96 145.93,-6.33 178.9,59.5 30.43,60.75 10.25,134.84 -46.81,171.65 -3.58,2.25 -7.38,5.03 -10.94,7.11 -3.71,2.21 -8.04,3.48 -12.67,3.48 -13.65,0 -24.75,-11.08 -24.75,-24.77 0,-14.57 9.17,-19.32 19.7,-25.69 37.55,-22.7 51.31,-70.58 31.67,-109.84 -20.86,-41.62 -71.5,-58.46 -113.12,-37.61 -8.4,4.21 -16.04,9.77 -22.61,16.49 -2.68,2.75 -5.4,6.03 -8.3,8.45zm-303.25 -266.05c-10.88,-68.76 -29.78,-135.36 -55.33,-199.77 -6.48,-16.3 -17.13,-32.32 -18.08,-48.91 14.74,6.41 79.2,70.75 144.78,102.25 43.77,21.04 90.85,40.2 139,59.2l1.5 4.39c3.88,12.09 5.66,24.74 5.36,37.43 -1.48,62.9 -53.68,112.7 -116.58,111.22 -44.49,-1.05 -82.85,-27.61 -100.65,-65.81z"/>
  </g>
  <path class="fil2" d="M12687.76 3799.03c-47.56,21.63 -96.4,21.62 -143.95,0 -46.19,-21 -80.33,-55.11 -101.61,-101.94l-879.96 -2053.31c-21.92,-48.16 -21.29,-97.7 -0.22,-146.13 20.59,-47.39 54.4,-83.04 101.51,-104.47l2.67 -1.21 2.84 -0.72c22.22,-5.56 48.84,-11.63 71.82,-11.63 81.74,0 140.41,40.85 173.61,115.57l874.6 2053.24c21.9,48.18 21.28,97.7 0.22,146.15 -20.62,47.38 -54.43,83.03 -101.52,104.44zm-6492.19 -2406.95c164.2,0 323.47,30.87 474.21,96 144.22,62.32 274.58,147.74 385.29,259.38 110.31,111.24 195.91,241.19 257.47,385.23 64.41,150.75 94.18,309.32 94.18,473.21 0,164.19 -30.72,322.7 -96.01,473.35 -62.47,144.11 -148.19,274.05 -259.28,385.15 -111.1,111.11 -241.06,196.84 -385.17,259.29 -150.66,65.3 -309.15,96.01 -473.36,96.01 -163.87,0 -322.45,-29.76 -473.2,-94.18 -144.05,-61.53 -273.99,-147.16 -385.22,-257.47 -111.65,-110.71 -197.08,-241.05 -259.39,-385.28 -65.14,-150.74 -95.99,-310.01 -95.99,-474.21 0,-208.11 50.5,-403.9 150.67,-586.3 24.74,-45.05 60.91,-77.42 110.28,-92.61 49.97,-15.38 98.26,-9.11 144,15.84 45.8,24.99 77.17,62.82 90.39,113.46 12.6,48.32 8.14,96 -12.52,141.43l-0.68 1.49 -0.82 1.41c-72.92,125.01 -107.66,260.54 -107.66,405.27 0,112.92 21.08,222.42 66.63,325.81 43.73,99.22 104.23,188.29 180.92,264.99 76.87,76.87 166.32,136.33 265.83,180.01 103.55,45.44 213.78,66.66 326.75,66.66 112.97,0 223.21,-21.2 326.75,-66.64 99.61,-43.71 188.93,-104.02 265.83,-180.9 76.9,-76.9 137.2,-166.23 180.91,-265.83 45.43,-103.55 66.62,-213.78 66.62,-326.74 0,-112.97 -21.18,-223.21 -66.61,-326.76 -43.67,-99.53 -103.17,-188.96 -180.03,-265.83 -76.7,-76.69 -165.77,-137.2 -264.99,-180.93 -103.39,-45.57 -212.89,-66.61 -325.82,-66.61 -144.73,0 -280.25,34.74 -405.28,107.65l-0.79 0.46c-45.75,24.95 -94.82,31.06 -144.78,15.87 -49.85,-15.17 -87.29,-47.06 -112.2,-92.72 -24.6,-45.1 -32.02,-92.88 -18.88,-142.71 13.24,-50.21 45.03,-87.09 90.49,-111.66 184.38,-99.61 381.93,-150.58 591.44,-150.58zm1680.44 188.1c-1.45,-37.42 -1.49,-74.86 -0.08,-112.21 7.36,-348.78 135.34,-647.11 384.68,-896.46 256.12,-256.15 565.89,-384.2 928.49,-384.2l108.08 0c272.13,0 521.08,-56.04 745.98,-168.09 25.64,-12.81 53.66,-19.22 84.88,-19.22 51.22,0 96.03,18.42 132.86,55.24 36.02,36.82 54.43,80.83 54.43,132.07 0,51.23 -17.62,95.25 -53.65,131.27 -15.99,15.21 -31.99,28.03 -49.61,37.61 -275.36,136.88 -580.33,205.71 -914.9,205.71l-108.08 0c-259.33,0 -481.08,91.26 -664.36,273.78 -260.38,259.22 -294.5,556.82 -272.44,904.81 100.48,-90.42 213.55,-164.53 336.7,-221.82 154.97,-72.11 319.28,-105.24 490.15,-105.24 161.78,0 317.29,31.23 465.42,96.06 143.55,62.8 271.64,148.47 382.41,259.24 110.54,110.54 196.4,239.21 259.23,382.34 64.99,148.1 96.06,303.71 96.06,465.49 0,161.47 -30.09,317.13 -94.22,465.33 -61.88,143.01 -147.64,271.71 -257.43,382.41 -110.13,111.07 -239.25,196.68 -382.49,259.34 -148.17,64.84 -304.56,96.07 -466.34,96.07 -224.28,0 -432.73,-59.52 -624.77,-175.34 -43.05,-25.96 -71.15,-64.13 -83.85,-112.75 -13.37,-51.22 -3.28,-100 24.74,-144.48 25.09,-45.48 63.16,-76.01 114.22,-87.11 49.77,-10.83 97.63,-2.45 142.25,21.87l1.07 0.58 1.03 0.68c129.09,83.73 271.52,122.86 425.31,122.86 111.36,0 218.6,-21.73 320.48,-66.61 99.14,-43.7 188.36,-103.42 264.99,-180.04 76.34,-76.33 135.1,-165.27 177.19,-264.56 43.34,-102.28 64.13,-209.79 64.13,-320.9 0,-111.1 -20.8,-218.6 -64.13,-320.88 -42.1,-99.33 -100.86,-188.26 -177.19,-264.59 -76.34,-76.33 -165.26,-135.09 -264.57,-177.17 -102.28,-43.33 -209.79,-64.15 -320.89,-64.15 -111.1,0 -218.61,20.82 -320.89,64.15 -99.32,42.07 -188.25,100.84 -264.56,177.17 -76.63,76.64 -136.32,165.85 -180.03,265.01 -44.9,101.87 -66.66,209.12 -66.66,320.47l0 1018.96c0,51.23 -18.53,95.87 -54.76,132.09 -36.23,36.22 -80.84,54.76 -132.06,54.76 -51.24,0 -95.87,-18.53 -132.09,-54.77 -36.22,-36.22 -54.74,-80.87 -54.74,-132.08l0 -2052.68zm12345.79 1811.67c29.35,42.76 38,90.97 25.13,141.38 -12.98,50.76 -43.77,89.8 -90.02,114.29 -191.42,115.75 -400.24,172.19 -623.99,172.19 -164.21,0 -323.46,-30.87 -474.2,-95.99 -144.3,-62.34 -274.58,-148.6 -385.3,-260.28 -110.57,-111.51 -195.97,-241.69 -257.5,-386.14 -64.24,-150.85 -94.14,-310.17 -94.14,-474.04 0,-164.21 30.88,-323.47 96,-474.21 62.48,-144.58 148.79,-274.71 260.19,-386.09 111.38,-111.37 241.5,-197.72 386.06,-260.18 150.74,-65.14 310.03,-96 474.22,-96 172.04,0 337.66,34.58 493.68,107.03 127.27,59.09 242.48,136.22 343.79,231.6l0 -146.45c0,-50.82 18.01,-95.68 53.71,-131.91 35.69,-36.23 79.6,-54.94 130.45,-54.94 52.42,0 98.78,17.34 135.81,54.93 35.71,36.24 53.7,81.1 53.7,131.92l0 2053.93c0,50.82 -17.99,95.69 -53.7,131.92 -37.03,37.61 -83.39,54.93 -135.81,54.93 -50.85,0 -94.77,-18.69 -130.45,-54.93 -35.71,-36.23 -53.71,-81.09 -53.71,-131.92l0 -1032.3c0,-113.35 -21.07,-222.9 -66.66,-326.74 -43.74,-99.66 -104.28,-188.78 -180.96,-265.9 -76.86,-77.28 -165.94,-137.05 -265.77,-180.85 -103.55,-45.43 -213.78,-66.63 -326.74,-66.63 -112.86,0 -223.3,20.8 -326.65,66.59 -99.88,44.24 -188.87,104.38 -265.86,181.8 -76.75,77.18 -137.26,167.11 -180.98,266.78 -45.6,103.92 -66.64,214.27 -66.64,327.64 0,113.35 21.05,223.71 66.64,327.63 43.69,99.57 103.38,189.64 180.09,266.79 76.74,77.18 165.54,137.53 265.02,181.78 103.2,45.92 212.89,66.58 325.71,66.58 154.72,0 299.1,-37.93 430.88,-117.69 44.72,-28.44 93.81,-38.78 145.39,-25.33 50.04,13.06 87.61,43.89 112.61,88.84zm-3530.62 -762.25l0 1003.26c0,54.53 -24.77,99.34 -66.19,134.02 -42.46,35.54 -93.31,52.83 -148.57,52.83 -55.08,0 -104.46,-16.93 -146.01,-53.27 -40,-34.98 -62.58,-80.06 -62.58,-133.57l0 -3414.35c0,-53.5 22.6,-98.57 62.58,-133.55 41.55,-36.35 90.91,-53.28 146.01,-53.28 55.27,0 106.11,17.3 148.57,52.84 41.42,34.67 66.19,79.49 66.19,134l0 1913.46 864.66 -674.57c43.96,-33.68 95.44,-48.58 150.69,-46.6 55.52,1.99 105,20.91 145.02,59.7 38.2,37.04 58.74,83.24 56.16,136.66 -2.61,54.19 -28.71,97.45 -71.16,130.49l-1145.36 891.95zm1385.83 859.82c45.27,31.36 75.95,74.09 81.33,129.68 5.24,54.07 -14.08,100.77 -53.04,138.29 -45.33,43.63 -102.21,62.32 -164.67,62.32 -50.14,0 -96.58,-13.68 -136.85,-43.73l-922.81 -688.44c-42.48,-32.55 -69.18,-75.56 -74.34,-129.12 -5.22,-54.04 14.16,-100.6 52.96,-138.18 39.75,-38.55 88.8,-58.36 143.87,-62.32 55.83,-4.01 107.33,9.78 151.54,43.64l922.01 687.86zm-2997.34 -97.56c29.35,42.76 37.99,90.97 25.12,141.38 -12.95,50.76 -43.76,89.8 -90.01,114.29 -191.42,115.75 -400.23,172.19 -623.99,172.19 -164.2,0 -323.48,-30.85 -474.21,-95.99 -144.3,-62.34 -274.55,-148.61 -385.29,-260.28 -110.58,-111.51 -195.97,-241.68 -257.5,-386.14 -64.24,-150.85 -94.15,-310.17 -94.15,-474.04 0,-164.21 30.89,-323.47 96.01,-474.21 62.47,-144.57 148.79,-274.71 260.18,-386.09 111.38,-111.38 241.5,-197.71 386.08,-260.18 150.74,-65.14 310,-96 474.21,-96 172.04,0 337.65,34.57 493.67,107.03 127.27,59.1 242.48,136.22 343.8,231.6l0 -146.45c0,-50.83 18,-95.67 53.7,-131.91 35.7,-36.23 79.62,-54.94 130.47,-54.94 52.4,0 98.77,17.34 135.8,54.94 35.7,36.23 53.69,81.09 53.69,131.91l0 2053.93c0,50.82 -17.99,95.69 -53.68,131.92 -37.05,37.62 -83.4,54.93 -135.81,54.93 -50.86,0 -94.79,-18.69 -130.48,-54.93 -35.69,-36.24 -53.69,-81.09 -53.69,-131.92l0 -1032.3c0,-113.34 -21.07,-222.9 -66.64,-326.73 -43.74,-99.67 -104.29,-188.79 -180.97,-265.91 -76.86,-77.28 -165.94,-137.05 -265.76,-180.85 -103.56,-45.43 -213.79,-66.63 -326.76,-66.63 -112.85,0 -223.28,20.8 -326.63,66.59 -99.87,44.24 -188.89,104.38 -265.88,181.8 -76.75,77.18 -137.23,167.12 -180.97,266.78 -45.61,103.92 -66.63,214.27 -66.63,327.64 0,113.35 21.03,223.71 66.63,327.63 43.71,99.56 103.38,189.64 180.08,266.79 76.75,77.17 165.55,137.53 265.04,181.78 103.2,45.92 212.89,66.58 325.7,66.58 154.74,0 299.12,-37.93 430.89,-117.67 44.7,-28.46 93.82,-38.79 145.38,-25.34 50.05,13.06 87.61,43.89 112.61,88.84zm-3515.56 -1410.9c46.05,21.52 79.18,56.83 99.5,103.54 21.05,48.44 21.68,97.98 0.06,145.51l-629.79 1467.74c-21,46.19 -55.12,80.31 -101.31,101.3 -47.56,21.62 -96.4,21.63 -143.96,0 -47.11,-21.41 -80.93,-57.06 -101.52,-104.44 -21.07,-48.45 -21.68,-97.96 -0.08,-145.48l629.74 -1472.98 0.25 -0.53c33.96,-72.13 93.53,-109.12 173.11,-109.12 23.55,0 53.11,1.92 74,14.46z"/>
  <g id="_2340757417344">
   <path class="fil3" d="M5673.27 4588.56l-160.08 0 0 384.96 -141.97 0 0 -384.96 -160.09 0 0 -116.25 462.15 0 0 116.25zm554.58 133.4c0,39.38 -5.71,75.43 -17.15,108.15 -11.43,32.71 -27.95,60.67 -49.54,83.85 -21.6,23.19 -47.49,41.14 -77.67,53.85 -30.17,12.71 -64,19.05 -101.48,19.05 -36.84,0 -70.35,-6.35 -100.52,-19.05 -30.18,-12.71 -56.07,-30.66 -77.67,-53.85 -21.6,-23.18 -38.43,-51.13 -50.5,-83.85 -12.07,-32.71 -18.11,-68.76 -18.11,-108.15 0,-39.38 6.2,-75.28 18.59,-107.68 12.38,-32.39 29.54,-60.03 51.46,-82.9 21.92,-22.87 47.97,-40.65 78.13,-53.36 30.18,-12.71 63.05,-19.05 98.62,-19.05 36.22,0 69.41,6.35 99.58,19.05 30.18,12.71 56.06,30.49 77.66,53.36 21.6,22.88 38.44,50.51 50.51,82.9 12.06,32.4 18.1,68.3 18.1,107.68zm-144.83 0c0,-43.84 -8.74,-78.3 -26.21,-103.39 -17.46,-25.09 -42.4,-37.64 -74.8,-37.64 -32.39,0 -57.49,12.55 -75.28,37.64 -17.79,25.09 -26.68,59.55 -26.68,103.39 0,43.83 8.89,78.61 26.68,104.34 17.79,25.73 42.89,38.59 75.28,38.59 32.4,0 57.34,-12.86 74.8,-38.59 17.47,-25.72 26.21,-60.5 26.21,-104.34zm575.53 4.76c0,-43.83 -9.84,-78.92 -29.54,-105.29 -19.69,-26.37 -48.91,-39.54 -87.66,-39.54 -12.71,0 -24.46,0.48 -35.26,1.42 -10.79,0.96 -19.69,2.07 -26.68,3.33l0 256.32c8.89,5.72 20.49,10.48 34.78,14.3 14.3,3.81 28.75,5.71 43.35,5.71 67.34,0 101,-45.42 101,-136.26zm144.84 -3.81c0,38.75 -4.77,74.01 -14.3,105.77 -9.53,31.77 -23.5,59.08 -41.92,81.95 -18.43,22.88 -41.3,40.66 -68.61,53.37 -27.32,12.71 -58.77,19.05 -94.34,19.05 -19.69,0 -38.12,-1.9 -55.27,-5.71 -17.15,-3.81 -33.66,-9.21 -49.54,-16.2l0 188.66 -141.98 0 0 -660.34c12.71,-3.81 27.32,-7.47 43.84,-10.96 16.51,-3.49 33.83,-6.51 51.92,-9.05 18.11,-2.55 36.53,-4.61 55.27,-6.2 18.74,-1.58 36.69,-2.38 53.84,-2.38 41.3,0 78.15,6.19 110.54,18.59 32.4,12.38 59.72,29.86 81.95,52.4 22.23,22.55 39.23,50.03 50.98,82.43 11.75,32.4 17.63,68.61 17.63,108.63zm465 -134.35l-213.44 0 0 384.96 -141.98 0 0 -501.21 355.42 0 0 116.25zm545.05 133.4c0,39.38 -5.71,75.43 -17.15,108.15 -11.43,32.71 -27.95,60.67 -49.54,83.85 -21.6,23.19 -47.49,41.14 -77.67,53.85 -30.17,12.71 -64,19.05 -101.48,19.05 -36.84,0 -70.35,-6.35 -100.52,-19.05 -30.18,-12.71 -56.07,-30.66 -77.67,-53.85 -21.6,-23.18 -38.43,-51.13 -50.5,-83.85 -12.07,-32.71 -18.11,-68.76 -18.11,-108.15 0,-39.38 6.2,-75.28 18.59,-107.68 12.38,-32.39 29.54,-60.03 51.46,-82.9 21.92,-22.87 47.97,-40.65 78.13,-53.36 30.18,-12.71 63.05,-19.05 98.62,-19.05 36.22,0 69.41,6.35 99.58,19.05 30.18,12.71 56.06,30.49 77.66,53.36 21.6,22.88 38.44,50.51 50.51,82.9 12.06,32.4 18.1,68.3 18.1,107.68zm-144.83 0c0,-43.84 -8.74,-78.3 -26.21,-103.39 -17.46,-25.09 -42.4,-37.64 -74.8,-37.64 -32.39,0 -57.49,12.55 -75.28,37.64 -17.79,25.09 -26.68,59.55 -26.68,103.39 0,43.83 8.89,78.61 26.68,104.34 17.79,25.73 42.89,38.59 75.28,38.59 32.4,0 57.34,-12.86 74.8,-38.59 17.47,-25.72 26.21,-60.5 26.21,-104.34zm396.4 146.74c8.89,1.27 20.8,2.38 35.73,3.33 14.93,0.95 28.75,1.42 41.45,1.42 31.77,0 56.54,-3.97 74.33,-11.91 17.79,-7.95 26.68,-22.4 26.68,-43.36 0,-20.32 -8.1,-34.46 -24.3,-42.4 -16.2,-7.94 -39.86,-11.92 -70.99,-11.92l-82.9 0 0 104.82zm80.04 -200.11c23.51,0 42.56,-3.01 57.18,-9.05 14.61,-6.04 21.91,-19.22 21.91,-39.54 0,-19.06 -8.26,-32.08 -24.77,-39.07 -16.52,-6.99 -38.12,-10.48 -64.8,-10.48 -8.9,0 -20.49,0.48 -34.78,1.43 -14.3,0.95 -25.89,2.06 -34.78,3.33l0 93.38 80.04 0zm-4.76 314.45c-17.79,0 -36.85,-0.63 -57.17,-1.9 -20.33,-1.28 -40.34,-3.02 -60.04,-5.25 -19.69,-2.22 -38.27,-4.76 -55.75,-7.62 -17.46,-2.87 -32.24,-5.57 -44.31,-8.1l0 -480.25c12.07,-2.55 26.84,-4.92 44.31,-7.15 17.47,-2.22 36.06,-4.29 55.75,-6.2 19.7,-1.9 39.71,-3.33 60.04,-4.28 20.32,-0.96 39.38,-1.43 57.17,-1.43 41.29,0 76.07,4.13 104.34,12.38 28.27,8.26 51.14,19.06 68.61,32.4 17.47,13.34 30.01,28.27 37.64,44.79 7.63,16.52 11.44,33.04 11.44,49.54 0,22.24 -5.4,42.56 -16.2,60.99 -10.8,18.42 -24.47,31.76 -40.97,40.02 8.89,3.81 17.94,9.2 27.16,16.2 9.2,6.99 17.62,15.41 25.24,25.26 7.63,9.84 13.82,21.6 18.59,35.25 4.76,13.66 7.15,29.38 7.15,47.18 0,20.32 -3.97,40.02 -11.92,59.07 -7.94,19.06 -21.44,35.89 -40.5,50.5 -19.05,14.62 -44.15,26.37 -75.28,35.26 -31.13,8.89 -69.56,13.34 -115.3,13.34zm821.38 -261.08c0,39.38 -5.71,75.43 -17.15,108.15 -11.43,32.71 -27.95,60.67 -49.54,83.85 -21.6,23.19 -47.49,41.14 -77.67,53.85 -30.17,12.71 -64,19.05 -101.48,19.05 -36.84,0 -70.35,-6.35 -100.52,-19.05 -30.18,-12.71 -56.07,-30.66 -77.67,-53.85 -21.6,-23.18 -38.43,-51.13 -50.5,-83.85 -12.07,-32.71 -18.11,-68.76 -18.11,-108.15 0,-39.38 6.2,-75.28 18.59,-107.68 12.38,-32.39 29.54,-60.03 51.46,-82.9 21.92,-22.87 47.97,-40.65 78.13,-53.36 30.18,-12.71 63.05,-19.05 98.62,-19.05 36.22,0 69.41,6.35 99.58,19.05 30.18,12.71 56.06,30.49 77.66,53.36 21.6,22.88 38.44,50.51 50.51,82.9 12.06,32.4 18.1,68.3 18.1,107.68zm-144.83 0c0,-43.84 -8.74,-78.3 -26.21,-103.39 -17.46,-25.09 -42.4,-37.64 -74.8,-37.64 -32.39,0 -57.49,12.55 -75.28,37.64 -17.79,25.09 -26.68,59.55 -26.68,103.39 0,43.83 8.89,78.61 26.68,104.34 17.79,25.73 42.89,38.59 75.28,38.59 32.4,0 57.34,-12.86 74.8,-38.59 17.47,-25.72 26.21,-60.5 26.21,-104.34zm222.97 -97.2l276.33 0 0 128.64 -276.33 0 0 -128.64zm700.37 101.96c0,-43.83 -9.84,-78.92 -29.54,-105.29 -19.69,-26.37 -48.91,-39.54 -87.66,-39.54 -12.71,0 -24.46,0.48 -35.26,1.42 -10.79,0.96 -19.69,2.07 -26.68,3.33l0 256.32c8.89,5.72 20.49,10.48 34.78,14.3 14.3,3.81 28.75,5.71 43.35,5.71 67.34,0 101,-45.42 101,-136.26zm144.84 -3.81c0,38.75 -4.77,74.01 -14.3,105.77 -9.53,31.77 -23.5,59.08 -41.92,81.95 -18.43,22.88 -41.3,40.66 -68.61,53.37 -27.32,12.71 -58.77,19.05 -94.34,19.05 -19.69,0 -38.12,-1.9 -55.27,-5.71 -17.15,-3.81 -33.66,-9.21 -49.54,-16.2l0 188.66 -141.98 0 0 -660.34c12.71,-3.81 27.32,-7.47 43.84,-10.96 16.51,-3.49 33.83,-6.51 51.92,-9.05 18.11,-2.55 36.53,-4.61 55.27,-6.2 18.74,-1.58 36.69,-2.38 53.84,-2.38 41.3,0 78.15,6.19 110.54,18.59 32.4,12.38 59.72,29.86 81.95,52.4 22.23,22.55 39.23,50.03 50.98,82.43 11.75,32.4 17.63,68.61 17.63,108.63zm301.1 151.51c13.98,0 27.32,-0.32 40.03,-0.96 12.71,-0.63 22.87,-1.59 30.49,-2.86l0 -107.67c-5.72,-1.28 -14.3,-2.55 -25.73,-3.81 -11.43,-1.28 -21.91,-1.91 -31.45,-1.91 -13.34,0 -25.88,0.8 -37.63,2.39 -11.76,1.59 -22.08,4.6 -30.97,9.05 -8.89,4.45 -15.88,10.48 -20.96,18.11 -5.08,7.62 -7.63,17.15 -7.63,28.58 0,22.23 7.46,37.64 22.39,46.22 14.93,8.57 35.42,12.86 61.46,12.86zm-11.43 -415.45c41.92,0 76.87,4.76 104.81,14.28 27.96,9.54 50.34,23.19 67.17,40.97 16.84,17.8 28.75,39.39 35.74,64.81 6.99,25.4 10.48,53.67 10.48,84.8l0 295.39c-20.33,4.45 -48.6,9.69 -84.8,15.73 -36.22,6.03 -80.05,9.05 -131.5,9.05 -32.39,0 -61.77,-2.86 -88.14,-8.58 -26.37,-5.71 -49.08,-15.08 -68.13,-28.1 -19.05,-13.03 -33.67,-30.02 -43.83,-50.98 -10.17,-20.96 -15.25,-46.7 -15.25,-77.19 0,-29.22 5.88,-53.99 17.63,-74.32 11.75,-20.33 27.48,-36.53 47.17,-48.6 19.7,-12.07 42.25,-20.8 67.65,-26.2 25.41,-5.4 51.78,-8.1 79.09,-8.1 18.43,0 34.78,0.8 49.08,2.39 14.3,1.58 25.89,3.65 34.78,6.19l0 -13.34c0,-24.14 -7.3,-43.52 -21.92,-58.13 -14.61,-14.62 -40.02,-21.92 -76.23,-21.92 -24.13,0 -47.96,1.75 -71.47,5.25 -23.5,3.49 -43.83,8.41 -60.98,14.76l-18.1 -114.34c8.25,-2.55 18.58,-5.25 30.96,-8.1 12.39,-2.86 25.89,-5.4 40.51,-7.63 14.61,-2.22 30.01,-4.12 46.21,-5.71 16.2,-1.59 32.56,-2.38 49.08,-2.38zm323.02 29.54c22.24,-8.26 47.97,-14.93 77.19,-20.01 29.22,-5.08 60.98,-7.63 95.29,-7.63 26.04,0 51.46,2.38 76.23,7.15 24.77,4.77 46.84,12.71 66.22,23.82 19.38,11.12 34.94,25.73 46.7,43.83 11.75,18.11 17.62,40.82 17.62,68.13 0,24.78 -5.71,45.9 -17.15,63.37 -11.43,17.46 -27.62,31.91 -48.59,43.35 27.95,12.07 48.59,27.95 61.94,47.64 13.34,19.7 20.01,44.79 20.01,75.28 0,28.59 -6.04,52.57 -18.11,71.94 -12.07,19.38 -28.27,35.09 -48.6,47.17 -20.33,12.07 -43.51,20.81 -69.55,26.2 -26.04,5.4 -53.05,8.1 -81,8.1 -16.52,0 -33.67,-0.79 -51.46,-2.38 -17.79,-1.59 -35.09,-3.81 -51.92,-6.67 -16.84,-2.86 -32.88,-6.51 -48.12,-10.96 -15.25,-4.45 -28.91,-9.21 -40.97,-14.3l25.72 -110.53c13.34,5.08 33.83,11.12 61.46,18.1 27.63,6.99 58.93,10.48 93.86,10.48 57.17,0 85.76,-15.88 85.76,-47.64 0,-10.79 -2.23,-19.53 -6.68,-26.2 -4.45,-6.67 -10.32,-11.92 -17.62,-15.73 -7.31,-3.81 -15.73,-6.35 -25.26,-7.62 -9.53,-1.28 -19.05,-1.91 -28.59,-1.91l-111.48 0 0 -101 112.44 0c22.87,0 38.91,-4.61 48.12,-13.82 9.21,-9.21 13.82,-19.85 13.82,-31.93 0,-12.07 -5.24,-23.02 -15.72,-32.87 -10.48,-9.85 -29.7,-14.77 -57.66,-14.77 -27.95,0 -54.31,2.55 -79.08,7.63 -24.78,5.08 -44.79,9.85 -60.04,14.3l-24.78 -110.54zm637.48 380.2c8.89,1.27 20.8,2.38 35.73,3.33 14.93,0.95 28.75,1.42 41.45,1.42 31.77,0 56.54,-3.97 74.33,-11.91 17.79,-7.95 26.68,-22.4 26.68,-43.36 0,-20.32 -8.1,-34.46 -24.3,-42.4 -16.2,-7.94 -39.86,-11.92 -70.99,-11.92l-82.9 0 0 104.82zm80.04 -200.11c23.51,0 42.56,-3.01 57.18,-9.05 14.61,-6.04 21.91,-19.22 21.91,-39.54 0,-19.06 -8.26,-32.08 -24.77,-39.07 -16.52,-6.99 -38.12,-10.48 -64.8,-10.48 -8.9,0 -20.49,0.48 -34.78,1.43 -14.3,0.95 -25.89,2.06 -34.78,3.33l0 93.38 80.04 0zm-4.76 314.45c-17.79,0 -36.85,-0.63 -57.17,-1.9 -20.33,-1.28 -40.34,-3.02 -60.04,-5.25 -19.69,-2.22 -38.27,-4.76 -55.75,-7.62 -17.46,-2.87 -32.24,-5.57 -44.31,-8.1l0 -480.25c12.07,-2.55 26.84,-4.92 44.31,-7.15 17.47,-2.22 36.06,-4.29 55.75,-6.2 19.7,-1.9 39.71,-3.33 60.04,-4.28 20.32,-0.96 39.38,-1.43 57.17,-1.43 41.29,0 76.07,4.13 104.34,12.38 28.27,8.26 51.14,19.06 68.61,32.4 17.47,13.34 30.01,28.27 37.64,44.79 7.63,16.52 11.44,33.04 11.44,49.54 0,22.24 -5.4,42.56 -16.2,60.99 -10.8,18.42 -24.47,31.76 -40.97,40.02 8.89,3.81 17.94,9.2 27.16,16.2 9.2,6.99 17.62,15.41 25.24,25.26 7.63,9.84 13.82,21.6 18.59,35.25 4.76,13.66 7.15,29.38 7.15,47.18 0,20.32 -3.97,40.02 -11.92,59.07 -7.94,19.06 -21.44,35.89 -40.5,50.5 -19.05,14.62 -44.15,26.37 -75.28,35.26 -31.13,8.89 -69.56,13.34 -115.3,13.34zm577.45 -394.49c-0.64,18.42 -1.43,37.95 -2.39,58.6 -0.95,20.64 -2.7,41.29 -5.24,61.93 -2.55,20.65 -5.88,40.82 -10,60.52 -4.13,19.69 -9.37,38.12 -15.73,55.27 -7.62,20.32 -17.31,39.22 -29.06,56.69 -11.75,17.46 -26.68,33.19 -44.79,47.17 -18.11,13.97 -40.02,25.57 -65.75,34.78 -25.72,9.21 -55.74,15.41 -90.04,18.58l-19.06 -118.15c32.4,-6.35 57.49,-15.41 75.28,-27.16 17.79,-11.75 31.13,-26.83 40.02,-45.26 6.99,-15.87 12.55,-34.3 16.68,-55.27 4.12,-20.95 7.14,-43.03 9.05,-66.22 1.9,-23.19 3.01,-46.85 3.33,-70.99 0.32,-24.14 0.48,-47.33 0.48,-69.56l0 -57.17 376.39 0 0 501.21 -141.98 0 0 -384.96 -97.19 0zm348.74 138.16c0,-44.46 6.84,-83.37 20.49,-116.73 13.66,-33.35 31.61,-61.14 53.85,-83.37 22.23,-22.23 47.8,-39.07 76.7,-50.5 28.9,-11.44 58.6,-17.15 89.1,-17.15 71.15,0 127.37,21.75 168.66,65.27 41.29,43.51 61.94,107.51 61.94,192 0,8.26 -0.32,17.32 -0.96,27.16 -0.63,9.85 -1.27,18.59 -1.91,26.21l-322.07 0c3.17,29.21 16.83,52.4 40.97,69.55 24.13,17.15 56.54,25.73 97.19,25.73 26.04,0 51.62,-2.38 76.71,-7.15 25.09,-4.77 45.58,-10.64 61.46,-17.63l19.05 115.3c-7.62,3.81 -17.79,7.63 -30.49,11.44 -12.71,3.81 -26.83,7.15 -42.4,10 -15.56,2.86 -32.25,5.24 -50.03,7.15 -17.79,1.9 -35.57,2.86 -53.36,2.86 -45.11,0 -84.33,-6.67 -117.69,-20.01 -33.35,-13.34 -60.98,-31.6 -82.89,-54.79 -21.92,-23.19 -38.12,-50.67 -48.6,-82.43 -10.48,-31.76 -15.73,-66.06 -15.73,-102.91zm333.51 -54.31c-0.63,-12.07 -2.7,-23.82 -6.19,-35.26 -3.5,-11.43 -8.89,-21.6 -16.21,-30.49 -7.3,-8.89 -16.51,-16.2 -27.63,-21.91 -11.12,-5.71 -24.93,-8.58 -41.44,-8.58 -15.88,0 -29.55,2.7 -40.97,8.1 -11.44,5.4 -20.96,12.55 -28.59,21.44 -7.63,8.89 -13.5,19.21 -17.63,30.97 -4.12,11.75 -7.15,23.66 -9.05,35.73l187.72 0zm388.77 -25.24c13.66,-13.35 28.27,-27.96 43.83,-43.84 15.72,-15.72 30.81,-31.44 45.58,-46.84 14.62,-15.56 28.59,-30.66 41.77,-45.42 13.18,-14.77 25.09,-27.63 35.57,-38.75l172.48 0c-12.55,13.5 -28.27,30.01 -47.01,49.71 -18.74,19.69 -38.59,40.17 -59.56,61.46 -20.96,21.28 -42.09,42.4 -63.36,63.36 -21.29,20.96 -41.3,39.38 -60.19,55.58 19.05,14.62 39.23,32.88 60.83,54.64 21.44,21.6 42.56,44.79 63.21,69.56 20.64,24.77 40.34,49.87 59.08,75.28 18.74,25.41 34.62,49.39 47.96,71.62l-161.67 0c-11.43,-17.15 -24.46,-35.26 -39.06,-54 -14.62,-18.73 -29.86,-37.32 -45.59,-55.58 -15.72,-18.26 -31.76,-35.42 -48.11,-51.3 -16.36,-16.04 -31.61,-29.69 -45.74,-41.29l0 202.17 -141.98 0 0 -501.21 141.98 0 0 174.86zm598.4 227.26c13.98,0 27.32,-0.32 40.03,-0.96 12.71,-0.63 22.87,-1.59 30.49,-2.86l0 -107.67c-5.72,-1.28 -14.3,-2.55 -25.73,-3.81 -11.43,-1.28 -21.91,-1.91 -31.45,-1.91 -13.34,0 -25.88,0.8 -37.63,2.39 -11.76,1.59 -22.08,4.6 -30.97,9.05 -8.89,4.45 -15.88,10.48 -20.96,18.11 -5.08,7.62 -7.63,17.15 -7.63,28.58 0,22.23 7.46,37.64 22.39,46.22 14.93,8.57 35.42,12.86 61.46,12.86zm-11.43 -415.45c41.92,0 76.87,4.76 104.81,14.28 27.96,9.54 50.34,23.19 67.17,40.97 16.84,17.8 28.75,39.39 35.74,64.81 6.99,25.4 10.48,53.67 10.48,84.8l0 295.39c-20.33,4.45 -48.6,9.69 -84.8,15.73 -36.22,6.03 -80.05,9.05 -131.5,9.05 -32.39,0 -61.77,-2.86 -88.14,-8.58 -26.37,-5.71 -49.08,-15.08 -68.13,-28.1 -19.05,-13.03 -33.67,-30.02 -43.83,-50.98 -10.17,-20.96 -15.25,-46.7 -15.25,-77.19 0,-29.22 5.88,-53.99 17.63,-74.32 11.75,-20.33 27.48,-36.53 47.17,-48.6 19.7,-12.07 42.25,-20.8 67.65,-26.2 25.41,-5.4 51.78,-8.1 79.09,-8.1 18.43,0 34.78,0.8 49.08,2.39 14.3,1.58 25.89,3.65 34.78,6.19l0 -13.34c0,-24.14 -7.3,-43.52 -21.92,-58.13 -14.61,-14.62 -40.02,-21.92 -76.23,-21.92 -24.13,0 -47.96,1.75 -71.47,5.25 -23.5,3.49 -43.83,8.41 -60.98,14.76l-18.1 -114.34c8.25,-2.55 18.58,-5.25 30.96,-8.1 12.39,-2.86 25.89,-5.4 40.51,-7.63 14.61,-2.22 30.01,-4.12 46.21,-5.71 16.2,-1.59 32.56,-2.38 49.08,-2.38zm761.35 129.59l-160.08 0 0 384.96 -141.97 0 0 -384.96 -160.09 0 0 -116.25 462.15 0 0 116.25zm61.94 138.16c0,-44.46 6.84,-83.37 20.49,-116.73 13.66,-33.35 31.61,-61.14 53.85,-83.37 22.23,-22.23 47.8,-39.07 76.7,-50.5 28.9,-11.44 58.6,-17.15 89.1,-17.15 71.15,0 127.37,21.75 168.66,65.27 41.29,43.51 61.94,107.51 61.94,192 0,8.26 -0.32,17.32 -0.96,27.16 -0.63,9.85 -1.27,18.59 -1.91,26.21l-322.07 0c3.17,29.21 16.83,52.4 40.97,69.55 24.13,17.15 56.54,25.73 97.19,25.73 26.04,0 51.62,-2.38 76.71,-7.15 25.09,-4.77 45.58,-10.64 61.46,-17.63l19.05 115.3c-7.62,3.81 -17.79,7.63 -30.49,11.44 -12.71,3.81 -26.83,7.15 -42.4,10 -15.56,2.86 -32.25,5.24 -50.03,7.15 -17.79,1.9 -35.57,2.86 -53.36,2.86 -45.11,0 -84.33,-6.67 -117.69,-20.01 -33.35,-13.34 -60.98,-31.6 -82.89,-54.79 -21.92,-23.19 -38.12,-50.67 -48.6,-82.43 -10.48,-31.76 -15.73,-66.06 -15.73,-102.91zm333.51 -54.31c-0.63,-12.07 -2.7,-23.82 -6.19,-35.26 -3.5,-11.43 -8.89,-21.6 -16.21,-30.49 -7.3,-8.89 -16.51,-16.2 -27.63,-21.91 -11.12,-5.71 -24.93,-8.58 -41.44,-8.58 -15.88,0 -29.55,2.7 -40.97,8.1 -11.44,5.4 -20.96,12.55 -28.59,21.44 -7.63,8.89 -13.5,19.21 -17.63,30.97 -4.12,11.75 -7.15,23.66 -9.05,35.73l187.72 0zm471.68 -83.85c-0.64,18.42 -1.43,37.95 -2.39,58.6 -0.95,20.64 -2.7,41.29 -5.24,61.93 -2.55,20.65 -5.88,40.82 -10,60.52 -4.13,19.69 -9.37,38.12 -15.73,55.27 -7.62,20.32 -17.31,39.22 -29.06,56.69 -11.75,17.46 -26.68,33.19 -44.79,47.17 -18.11,13.97 -40.02,25.57 -65.75,34.78 -25.72,9.21 -55.74,15.41 -90.04,18.58l-19.06 -118.15c32.4,-6.35 57.49,-15.41 75.28,-27.16 17.79,-11.75 31.13,-26.83 40.02,-45.26 6.99,-15.87 12.55,-34.3 16.68,-55.27 4.12,-20.95 7.14,-43.03 9.05,-66.22 1.9,-23.19 3.01,-46.85 3.33,-70.99 0.32,-24.14 0.48,-47.33 0.48,-69.56l0 -57.17 376.39 0 0 501.21 -141.98 0 0 -384.96 -97.19 0zm585.06 285.86c26.04,0 46.53,-4.92 61.46,-14.77 14.93,-9.84 22.4,-25.88 22.4,-48.12 0,-11.43 -2.55,-21.12 -7.63,-29.06 -5.08,-7.94 -12.07,-14.3 -20.96,-19.05 -8.89,-4.77 -19.22,-8.1 -30.97,-10.01 -11.75,-1.9 -24.3,-2.86 -37.64,-2.86 -9.53,0 -20.01,0.63 -31.45,1.91 -11.43,1.27 -20.01,2.53 -25.72,3.81l0 114.34c7.63,1.27 17.79,2.22 30.49,2.86 12.71,0.63 26.04,0.96 40.02,0.96zm-70.51 -223.92c8.89,-2.55 20.49,-4.61 34.78,-6.2 14.3,-1.58 30.65,-2.38 49.07,-2.38 29.86,0 57.65,3.49 83.38,10.48 25.72,6.99 48.12,17.63 67.17,31.93 19.06,14.28 33.99,32.39 44.79,54.31 10.8,21.91 16.2,47.49 16.2,76.7 0,29.22 -5.08,54.48 -15.24,75.76 -10.16,21.29 -24.78,38.75 -43.83,52.41 -19.06,13.65 -41.77,23.82 -68.13,30.49 -26.37,6.67 -55.75,10 -88.15,10 -41.92,0 -80.36,-2.07 -115.3,-6.19 -34.94,-4.13 -70.51,-10.64 -106.73,-19.54l0 -485.96 141.98 0 0 178.19zm827.1 323.02l-141.97 0 0 -198.2 -147.7 0 0 198.2 -141.98 0 0 -501.21 141.98 0 0 186.76 147.7 0 0 -186.76 141.97 0 0 501.21zm785.18 0l-141.98 0 0 -501.21 141.98 0 0 501.21zm-439.28 -99.1c26.04,0 46.53,-4.92 61.46,-14.77 14.93,-9.84 22.4,-25.88 22.4,-48.12 0,-11.43 -2.55,-21.12 -7.63,-29.06 -5.08,-7.94 -12.07,-14.3 -20.96,-19.05 -8.89,-4.77 -19.22,-8.1 -30.97,-10.01 -11.75,-1.9 -24.3,-2.86 -37.64,-2.86 -9.53,0 -20.01,0.63 -31.45,1.91 -11.43,1.27 -20.01,2.53 -25.72,3.81l0 114.34c7.63,1.27 17.79,2.22 30.49,2.86 12.71,0.63 26.04,0.96 40.02,0.96zm-70.51 -223.92c8.89,-2.55 20.49,-4.61 34.78,-6.2 14.3,-1.58 30.65,-2.38 49.07,-2.38 29.22,0 56.7,3.49 82.43,10.48 25.73,6.99 48.12,17.63 67.18,31.93 19.05,14.28 34.14,32.39 45.25,54.31 11.12,21.91 16.67,47.49 16.67,76.7 0,29.22 -5.08,54.48 -15.24,75.76 -10.16,21.29 -24.78,38.75 -43.83,52.41 -19.06,13.65 -41.77,23.82 -68.13,30.49 -26.37,6.67 -55.75,10 -88.15,10 -41.92,0 -80.36,-2.07 -115.3,-6.19 -34.94,-4.13 -70.51,-10.64 -106.73,-19.54l0 -485.96 141.98 0 0 178.19zm1099.62 -178.19l0 501.21 -142.93 0c0,-31.76 0.31,-63.36 0.95,-94.81 0.64,-31.45 1.28,-60.52 1.91,-87.19 0.63,-26.68 1.42,-50.02 2.38,-70.03 0.96,-20.01 1.43,-34.78 1.43,-44.31 -18.43,26.04 -36.85,52.4 -55.27,79.09 -18.42,26.68 -36.05,52.88 -52.89,78.61 -16.83,25.72 -32.71,50.34 -47.64,73.84 -14.93,23.5 -28.1,45.1 -39.54,64.8l-124.83 0 0 -501.21 141.98 0c0,31.76 -0.16,62.09 -0.48,91 -0.32,28.9 -0.79,55.11 -1.43,78.61 -0.63,23.51 -1.27,44 -1.9,61.46 -0.63,17.47 -0.96,30.97 -0.96,40.5 38.12,-55.9 73.22,-106.08 105.29,-150.56 32.08,-44.46 63.37,-84.8 93.86,-121.01l120.06 0zm-226.79 -68.61c-20.32,0 -39.86,-3.02 -58.6,-9.06 -18.73,-6.03 -35.73,-14.92 -50.98,-26.68 -15.24,-11.75 -27.79,-26.04 -37.64,-42.87 -9.84,-16.84 -15.72,-36.05 -17.63,-57.65l98.15 -25.73c5.08,24.14 13.5,41.3 25.24,51.46 11.76,10.17 25.58,15.25 41.45,15.25 16.52,0 30.66,-4.61 42.41,-13.82 11.75,-9.21 20.16,-26.52 25.24,-51.93l97.2 25.72c-1.9,21.6 -7.78,40.82 -17.63,57.66 -9.85,16.83 -22.23,30.97 -37.16,42.4 -14.93,11.44 -31.93,20.18 -50.98,26.2 -19.05,6.04 -38.75,9.06 -59.08,9.06zm1020.53 453.57l84.8 0 0 259.18 -121.01 0 0 -142.93 -395.45 0 0 -501.21 141.98 0 0 384.96 147.7 0 0 -384.96 141.97 0 0 384.96zm146.74 -130.55c0,-44.46 6.84,-83.37 20.49,-116.73 13.66,-33.35 31.61,-61.14 53.85,-83.37 22.23,-22.23 47.8,-39.07 76.7,-50.5 28.9,-11.44 58.6,-17.15 89.1,-17.15 71.15,0 127.37,21.75 168.66,65.27 41.29,43.51 61.94,107.51 61.94,192 0,8.26 -0.32,17.32 -0.96,27.16 -0.63,9.85 -1.27,18.59 -1.91,26.21l-322.07 0c3.17,29.21 16.83,52.4 40.97,69.55 24.13,17.15 56.54,25.73 97.19,25.73 26.04,0 51.62,-2.38 76.71,-7.15 25.09,-4.77 45.58,-10.64 61.46,-17.63l19.05 115.3c-7.62,3.81 -17.79,7.63 -30.49,11.44 -12.71,3.81 -26.83,7.15 -42.4,10 -15.56,2.86 -32.25,5.24 -50.03,7.15 -17.79,1.9 -35.57,2.86 -53.36,2.86 -45.11,0 -84.33,-6.67 -117.69,-20.01 -33.35,-13.34 -60.98,-31.6 -82.89,-54.79 -21.92,-23.19 -38.12,-50.67 -48.6,-82.43 -10.48,-31.76 -15.73,-66.06 -15.73,-102.91zm333.51 -54.31c-0.63,-12.07 -2.7,-23.82 -6.19,-35.26 -3.5,-11.43 -8.89,-21.6 -16.21,-30.49 -7.3,-8.89 -16.51,-16.2 -27.63,-21.91 -11.12,-5.71 -24.93,-8.58 -41.44,-8.58 -15.88,0 -29.55,2.7 -40.97,8.1 -11.44,5.4 -20.96,12.55 -28.59,21.44 -7.63,8.89 -13.5,19.21 -17.63,30.97 -4.12,11.75 -7.15,23.66 -9.05,35.73l187.72 0zm678.45 301.11l-141.97 0 0 -198.2 -147.7 0 0 198.2 -141.98 0 0 -501.21 141.98 0 0 186.76 147.7 0 0 -186.76 141.97 0 0 501.21zm547.91 -384.96l-160.08 0 0 384.96 -141.97 0 0 -384.96 -160.09 0 0 -116.25 462.15 0 0 116.25z"/>
   <path class="fil3" d="M20698.28 4726.72c0,-43.83 -9.84,-78.92 -29.54,-105.29 -19.69,-26.37 -48.91,-39.54 -87.66,-39.54 -12.71,0 -24.46,0.48 -35.26,1.42 -10.79,0.96 -19.69,2.07 -26.68,3.33l0 256.32c8.89,5.72 20.49,10.48 34.78,14.3 14.3,3.81 28.75,5.71 43.35,5.71 67.34,0 101,-45.42 101,-136.26zm144.84 -3.81c0,38.75 -4.77,74.01 -14.3,105.77 -9.53,31.77 -23.5,59.08 -41.92,81.95 -18.43,22.88 -41.3,40.66 -68.61,53.37 -27.32,12.71 -58.77,19.05 -94.34,19.05 -19.69,0 -38.12,-1.9 -55.27,-5.71 -17.15,-3.81 -33.66,-9.21 -49.54,-16.2l0 188.66 -141.98 0 0 -660.34c12.71,-3.81 27.32,-7.47 43.84,-10.96 16.51,-3.49 33.83,-6.51 51.92,-9.05 18.11,-2.55 36.53,-4.61 55.27,-6.2 18.74,-1.58 36.69,-2.38 53.84,-2.38 41.3,0 78.15,6.19 110.54,18.59 32.4,12.38 59.72,29.86 81.95,52.4 22.23,22.55 39.23,50.03 50.98,82.43 11.75,32.4 17.63,68.61 17.63,108.63z"/>
  </g>
 </g>
</svg>
