<?xml version="1.0" encoding="UTF-8"?>
<!DOCTYPE svg PUBLIC "-//W3C//DTD SVG 1.1//EN" "http://www.w3.org/Graphics/SVG/1.1/DTD/svg11.dtd">
<!-- Creator: CorelDRAW 2017 -->
<svg xmlns="http://www.w3.org/2000/svg" xml:space="preserve" width="200" height="153" version="1.1" style="shape-rendering:geometricPrecision; text-rendering:geometricPrecision; image-rendering:optimizeQuality; fill-rule:evenodd; clip-rule:evenodd"
viewBox="0 0 15434.84 8918.55"
 xmlns:xlink="http://www.w3.org/1999/xlink">
 <defs>
  <style type="text/css">
   <![CDATA[
    .fil0 {fill:#A2D9F7}
    .fil3 {fill:#0D8CC0;fill-rule:nonzero}
    .fil2 {fill:url(#id0)}
    .fil1 {fill:url(#id1)}
   ]]>
  </style>
  <linearGradient id="id0" gradientUnits="userSpaceOnUse" x1="6003.12" y1="2619.74" x2="-7850.69" y2="9739.03">
   <stop offset="0" style="stop-opacity:1; stop-color:#00A0E3"/>
   <stop offset="1" style="stop-opacity:1; stop-color:#8FBF2D"/>
  </linearGradient>
  <linearGradient id="id1" gradientUnits="userSpaceOnUse" x1="7610.8" y1="2239.32" x2="5947.15" y2="6621.43">
   <stop offset="0" style="stop-opacity:1; stop-color:#00A0E3"/>
   <stop offset="0.411765" style="stop-opacity:1; stop-color:#7DC577"/>
   <stop offset="1" style="stop-opacity:1; stop-color:#FAEA0A"/>
  </linearGradient>
 </defs>
 <g id="Слой_x0020_1">
  <metadata id="CorelCorpID_0Corel-Layer"/>
  <g id="_2341911047808">
   <g>
    <g>
     <path class="fil0" d="M9126.99 3989.29c69.54,0 133.04,25.72 181.55,68.18 -22.24,8.12 -44.2,15.8 -65.73,23.02l-6.61 2.21c-31.92,-19.16 -69.28,-30.17 -109.22,-30.17 -79.54,0 -148.87,43.68 -185.34,108.34 -24.82,4.89 -49.92,9.39 -75.18,13.41 37.57,-107.7 140.01,-184.98 260.52,-184.98z"/>
     <path class="fil0" d="M9126.99 3766.02c164.05,0 309.58,79.17 400.57,201.36 -36.41,16.69 -72.73,32.45 -108.61,47.21 -70.55,-82.14 -175.18,-134.19 -291.96,-134.19 -186.46,0 -341.89,132.66 -377.19,308.74 -39.07,3.69 -78.24,5.99 -117.15,6.69 33.76,-242.84 242.18,-429.81 494.34,-429.81z"/>
     <path class="fil0" d="M9126.99 3444.15c287.61,0 540.66,147.91 687.29,371.78 -53.45,32.56 -108.79,63.37 -164.77,92.19 -114,-166.5 -305.48,-275.83 -522.53,-275.83 -324.49,0 -591.91,244.3 -628.53,558.96 -64.03,-5.8 -126.28,-17.13 -185.25,-35.19 53.37,-401.85 397.34,-711.91 813.78,-711.91z"/>
     <path class="fil0" d="M9126.99 3099.29c401.57,0 755.68,203.07 965.37,512.08 -62.65,57.39 -134.85,112.04 -212.44,163.03 -160.4,-245.6 -437.69,-407.93 -752.93,-407.93 -449.91,0 -822.63,330.66 -888.39,762.21 -29.77,-12.9 -58.42,-27.83 -85.69,-45.08 -57.74,-36.54 -107.01,-82.16 -147.76,-136.55 138.47,-489.26 588.23,-847.76 1121.84,-847.76z"/>
    </g>
    <path class="fil0" d="M5854.4 2303.2c54.12,39.7 87.92,104.94 84.4,177.02 -2.95,60.51 -31.6,113.68 -74.89,149.45 -2.55,-20.16 -4.66,-40.44 -6.48,-60.8 19.86,-25.15 32.35,-56.51 34.02,-90.96 2.12,-43.37 -13.3,-83.53 -40.01,-113.63 0.3,-10.31 0.61,-20.63 1.11,-30.97 0.5,-10.07 1.19,-20.09 1.86,-30.11z"/>
    <path class="fil0" d="M5863.41 2207.21c101.02,50.5 168.06,157.21 162.21,277.25 -5.06,103.62 -63.21,192.08 -146.86,240.34 -4.45,-24.06 -8.34,-48.31 -11.77,-72.69 52.59,-39.01 87.93,-100.41 91.38,-170.93 4.05,-83.21 -37.32,-158.11 -102.33,-200.66 1.97,-24.59 4.39,-49.04 7.38,-73.31z"/>
    <g>
     <path class="fil0" d="M6071.85 1405.43c20.15,47.26 31.31,99.27 31.31,153.89 0,143.47 -76.96,268.95 -191.83,337.45 10.59,-50.46 22.74,-100.33 36.48,-149.56 40.91,-51.6 65.36,-116.89 65.36,-187.88 0,-3.77 -0.09,-7.52 -0.23,-11.26 18.16,-48.3 37.75,-95.9 58.91,-142.63z"/>
     <path class="fil0" d="M6160.38 1229.89c67.7,92.3 107.71,206.19 107.71,329.43 0,249.26 -163.59,460.32 -389.24,531.69 6.17,-49.43 13.95,-98.36 23.1,-146.81 141.29,-70.41 238.37,-216.29 238.37,-384.88 0,-71.26 -17.36,-138.46 -48.06,-197.63 21.36,-44.73 44.12,-88.66 68.13,-131.8z"/>
    </g>
    <g>
     <path class="fil0" d="M10356.56 1609.42c49.99,0 90.5,40.52 90.5,90.5 0,49.98 -40.52,90.49 -90.5,90.49 -49.98,0 -90.49,-40.52 -90.49,-90.49 0,-49.99 40.52,-90.5 90.49,-90.5zm0 20.74c38.54,0 69.76,31.23 69.76,69.76 0,38.53 -31.22,69.76 -69.76,69.76 -38.52,0 -69.76,-31.23 -69.76,-69.76 0,-38.53 31.24,-69.76 69.76,-69.76z"/>
     <path class="fil0" d="M10356.56 1536.18c90.43,0 163.74,73.31 163.74,163.74 0,90.42 -73.31,163.74 -163.74,163.74 -90.42,0 -163.74,-73.32 -163.74,-163.74 0,-90.43 73.32,-163.74 163.74,-163.74zm0 37.53c69.71,0 126.21,56.5 126.21,126.21 0,69.7 -56.5,126.2 -126.21,126.2 -69.7,0 -126.2,-56.5 -126.2,-126.2 0,-69.71 56.5,-126.21 126.2,-126.21z"/>
     <path class="fil0" d="M10356.56 1430.61c31.56,0 61.85,5.45 89.98,15.42 12.63,29.37 24.66,59.06 36.15,89.01 -34.96,-26.78 -78.67,-42.71 -126.13,-42.71 -114.65,0 -207.59,92.94 -207.59,207.6 0,114.66 92.94,207.59 207.59,207.59 94.36,0 174,-62.93 199.25,-149.14 8.4,30.73 16.34,61.66 23.55,92.88 -48.46,71.2 -130.15,117.97 -222.79,117.97 -148.74,0 -269.3,-120.56 -269.3,-269.3 0,-148.74 120.56,-269.31 269.3,-269.31z"/>
     <path class="fil0" d="M10356.56 1317.49c10.32,0 20.55,0.43 30.65,1.23 15.95,31.77 31.27,63.9 45.83,96.45 -24.39,-6.53 -50.03,-10.04 -76.48,-10.04 -162.78,0 -294.79,132 -294.79,294.8 0,162.82 132,294.79 294.79,294.79 93.03,0 175.96,-43.09 230,-110.38 7.47,34.69 14.19,69.66 20.14,104.89 -67.05,58.02 -154.49,93.12 -250.14,93.12 -211.22,0 -382.42,-171.21 -382.42,-382.42 0,-211.23 171.21,-382.43 382.42,-382.43z"/>
    </g>
    <path class="fil0" d="M9667.04 465.1c-62.76,99.55 -173.68,165.69 -300.05,165.69 -195.77,0 -354.47,-158.71 -354.47,-354.48 0,-50.46 10.57,-98.45 29.57,-141.9 25.66,9.01 51.15,18.36 76.39,28.2 -15.86,34.62 -24.72,73.14 -24.72,113.7 0,150.93 122.34,273.24 273.23,273.24 99.08,0 185.82,-52.71 233.74,-131.64 22.39,15.36 44.49,31.09 66.32,47.18zm-1318.88 -463c82.97,3.36 164.88,10.89 245.45,22.49 -25.79,79.27 -39.78,163.86 -39.78,251.72 0,449.14 364.09,813.17 813.16,813.17 261.9,0 494.83,-123.81 643.55,-316.08 55.55,60.43 108.04,123.71 157.2,189.62 -193.47,225.39 -480.41,368.19 -800.74,368.19 -582.6,0 -1054.9,-472.3 -1054.9,-1054.9 0,-94.86 12.6,-186.76 36.07,-274.21zm416.48 53.51c48.43,10.61 96.36,22.59 143.64,36.1 -22.98,57.04 -35.66,119.34 -35.66,184.6 0,273.06 221.36,494.38 494.37,494.38 171.12,0 321.9,-86.92 410.64,-219.01 37.94,31.56 74.87,64.29 110.78,98.1 -116.38,162.19 -306.56,267.88 -521.42,267.88 -354.21,0 -641.34,-287.15 -641.34,-641.35 0,-77.56 13.77,-151.89 38.99,-220.7zm1462.58 990.95c37.52,55.08 72.8,111.82 105.7,170.07 -230.21,30.16 -409.85,220.9 -422.78,456.1 -168.39,65.56 -351.56,101.57 -543.16,101.57 -345.15,0 -662.99,-116.79 -916.29,-312.94 9.29,-71.62 14.13,-144.65 14.13,-218.8 0,-93.43 -7.73,-185.05 -22.36,-274.34 210.62,281 546.36,462.8 924.52,462.8 341.79,0 648.82,-148.5 860.23,-384.46zm-2287.91 -1026.5c100.31,-13.03 202.54,-19.87 306.34,-20.07 -21.75,88.55 -33.37,181.08 -33.37,276.31 0,28.11 1.07,55.98 3.04,83.59 -77.08,-125.04 -170,-239.25 -276.01,-339.84z"/>
    <path class="fil0" d="M10632.97 2578.18c-85.09,27.63 -146.61,107.55 -146.61,201.87 0,70.53 34.44,133.05 87.41,171.64 4.24,-17.61 8.27,-35.31 12.12,-53.07 -31.36,-29.79 -50.9,-71.9 -50.9,-118.57 0,-65.13 38.07,-121.37 93.16,-147.69 1.82,-17.99 3.39,-36.05 4.81,-54.17zm-286.08 -393.33c-203.29,120.36 -339.61,341.83 -339.61,595.2 0,279.74 166.14,520.66 405.13,629.47 -29.38,62.21 -61.36,122.96 -95.82,182.09 -304.25,-143.46 -514.85,-452.9 -514.85,-811.56 0,-272.88 121.9,-517.24 314.18,-681.72 66.6,47.04 145.52,77.83 230.97,86.53zm281.69 -32.49c4.74,47.77 7.9,96 9.78,144.55 -240.47,29.67 -426.6,234.67 -426.6,483.13 0,194.96 114.59,363.09 280.06,440.83 -16.85,45.43 -35.09,90.2 -54.57,134.28 -218.4,-99.39 -370.24,-319.51 -370.24,-575.11 0,-325.15 245.72,-592.85 561.57,-627.68zm11.62 248.12c-0.14,30.07 -0.9,59.98 -2.11,89.77 -134.45,27.93 -235.49,147.06 -235.49,289.79 0,109.98 59.99,205.95 149.04,256.98 -8.11,28.87 -16.83,57.49 -25.97,85.91 -125.19,-63.26 -211.05,-193.04 -211.05,-342.88 0,-192.22 141.25,-351.43 325.6,-379.56z"/>
    <path class="fil0" d="M7100.19 287.53c460.58,75.29 812.09,474.98 812.09,956.85 0,431.12 -281.36,796.45 -670.47,922.56 23.72,-76.29 36.48,-157.37 36.48,-241.45 0,-4.37 -0.1,-8.7 -0.16,-13.05 244.31,-122.93 411.94,-375.89 411.94,-668.07 0,-412.78 -334.61,-747.45 -747.45,-747.45 -73.7,0 -144.91,10.73 -212.17,30.6 115.28,-90.68 239.03,-171.06 369.74,-239.99z"/>
    <path class="fil0" d="M7668.23 74.03c390.97,242.93 651.33,676.2 651.33,1170.35 0,453.99 -219.74,856.61 -558.63,1107.44 -110.51,-56.27 -235.57,-88 -368.09,-88 -69.04,0 -136.08,8.65 -200.09,24.86 2.37,-4.74 4.7,-9.51 6.99,-14.31 461.95,-114.94 804.28,-532.43 804.28,-1029.99 0,-485.88 -326.5,-895.54 -772.12,-1021.49 138.95,-62.84 284.92,-112.87 436.32,-148.86z"/>
    <path class="fil0" d="M6942.2 917.82c180.09,0 326.09,146 326.09,326.09 0,95.66 -41.2,181.71 -106.81,241.35 -16.01,-18.37 -33.51,-36.13 -52.56,-53.24 51.92,-46.05 84.65,-113.25 84.65,-188.11 0,-138.8 -112.53,-251.37 -251.37,-251.37 -129.86,0 -236.75,98.54 -249.98,224.9 -25.49,-8.32 -49.46,-16.47 -72.12,-24.51 24.48,-155.87 159.36,-275.11 322.1,-275.11z"/>
    <path class="fil0" d="M6942.2 653.45c326.11,0 590.45,264.35 590.45,590.45 0,198.9 -98.34,374.81 -249.04,481.8 -11.2,-47.21 -27.31,-91.53 -48.89,-133.13 99.41,-83.48 162.62,-208.68 162.62,-348.67 0,-251.35 -203.77,-455.14 -455.14,-455.14 -217.43,0 -399.24,152.52 -444.35,356.38 -45.35,-19.74 -85.55,-39.92 -123.99,-61.78 69.92,-248.08 297.89,-429.9 568.34,-429.9z"/>
    <path class="fil1" d="M6582.86 4070.33c-264.56,-257.28 -439.26,-608.89 -467.48,-1005.94 -9.92,-139.82 -1.08,-276.63 24.4,-407.96 13.2,-94.05 34.13,-188.41 62.89,-282.62 9.97,-32.7 20.4,-66.65 30.95,-101.45 69.51,-228.91 145.75,-496.06 150.82,-706.66 0.43,-17.68 0.33,-35.23 -0.26,-52.65 27.64,16.72 59.81,26.62 94.13,27.44 105.31,2.49 192.72,-80.9 195.2,-186.22 0.12,-5.21 0.03,-10.43 -0.26,-15.62 230.97,91.46 461.65,198.1 482.44,485.05 9.52,131.53 -20.07,275.52 -63.16,416.33 -5.71,18.62 -6.89,22.71 -10.56,35.23 -290.98,83.43 -503.95,351.43 -503.95,669.23 0,384.49 311.71,696.2 696.2,696.2 72.84,0 270.72,-6.6 270.72,-109.95 0,-44.52 -36.07,-80.58 -80.56,-80.58 -48.24,0 -114.04,30.98 -190.16,30.98 -296.36,0 -536.63,-240.25 -536.63,-536.64 0,-281.82 217.29,-512.92 493.45,-534.92 344.95,-30.77 699.17,187.65 1088.53,187.65 299.22,0 731.03,-130.48 1013.81,-234.3 159.27,-58.44 325.36,-136.87 481.21,-220.24l173.4 -99.81c14.63,-9.35 39.39,-30.03 61.12,-33.1 -30.23,58 -219.33,218.35 -266.88,255.14 -185.2,143.29 -389.44,252.19 -603.69,347.08 -543.94,240.93 -1448.55,269.38 -1448.55,1004.51 0,89.48 16.46,175.1 46.44,254.06 20.89,59.44 49.2,111.79 83.75,157.64 495.95,704.17 1905.61,144.73 2386.56,-336.22l41.56 -40.03c-21.89,34.8 -42.66,70.06 -68.16,102.42 -398.96,568.1 -1040.71,958.59 -1787.15,1011.63 -656.53,46.67 -1401.64,-194.63 -1850.14,-695.67zm111.62 -2387.98c-4.48,3.57 -10.13,5.68 -16.29,5.68 -14.48,0 -26.22,-11.74 -26.22,-26.22 0,-7.06 2.8,-13.48 7.35,-18.19 3,-3.12 6.57,-6.25 9.71,-9.34 10.32,-9.98 22.08,-18.29 34.91,-24.71 69.69,-34.91 154.5,-6.71 189.39,62.98 32.22,64.32 10.86,142.74 -49.55,181.72 -3.8,2.39 -7.81,5.31 -11.58,7.52 -3.92,2.35 -8.52,3.69 -13.41,3.69 -14.46,0 -26.21,-11.74 -26.21,-26.22 0,-15.42 9.71,-20.47 20.85,-27.2 39.75,-24.03 54.33,-74.73 33.52,-116.28 -22.08,-44.06 -75.7,-61.89 -119.76,-39.82 -8.9,4.46 -16.98,10.34 -23.93,17.47 -2.84,2.91 -5.72,6.37 -8.78,8.93zm-321.06 -281.65c-11.51,-72.81 -31.52,-143.3 -58.57,-211.49 -6.87,-17.25 -18.13,-34.22 -19.15,-51.79 15.62,6.79 83.87,74.9 153.28,108.25 46.34,22.28 96.18,42.56 147.16,62.67l1.6 4.65c4.1,12.8 5.99,26.19 5.67,39.63 -1.56,66.59 -56.84,119.31 -123.43,117.75 -47.09,-1.11 -87.71,-29.24 -106.56,-69.67z"/>
   </g>
   <path class="fil2" d="M7538.13 7450.28c-46.51,21.15 -94.26,21.14 -140.76,0 -45.17,-20.54 -78.55,-53.9 -99.36,-99.69l-860.49 -2007.88c-21.43,-47.1 -20.81,-95.54 -0.21,-142.9 20.14,-46.35 53.2,-81.2 99.26,-102.16l2.61 -1.18 2.77 -0.7c21.74,-5.44 47.76,-11.37 70.23,-11.37 79.93,0 137.3,39.95 169.77,113.01l855.25 2007.81c21.42,47.12 20.81,95.54 0.21,142.92 -20.16,46.34 -53.22,81.19 -99.27,102.14zm-6348.56 -2353.7c160.56,0 316.31,30.18 463.72,93.88 141.03,60.94 268.5,144.47 376.76,253.64 107.87,108.78 191.58,235.85 251.77,376.7 62.98,147.42 92.09,302.48 92.09,462.74 0,160.56 -30.04,315.56 -93.89,462.88 -61.08,140.93 -144.91,267.99 -253.54,376.63 -108.64,108.65 -235.73,192.48 -376.64,253.55 -147.33,63.86 -302.32,93.89 -462.89,93.89 -160.25,0 -315.32,-29.1 -462.73,-92.09 -140.87,-60.18 -267.93,-143.9 -376.7,-251.77 -109.18,-108.27 -192.71,-235.73 -253.65,-376.76 -63.7,-147.41 -93.87,-303.15 -93.87,-463.72 0,-203.5 49.39,-394.96 147.34,-573.33 24.19,-44.04 59.56,-75.7 107.84,-90.55 48.86,-15.04 96.08,-8.91 140.81,15.5 44.79,24.43 75.46,61.43 88.39,110.94 12.33,47.25 7.97,93.89 -12.23,138.31l-0.66 1.44 -0.8 1.38c-71.31,122.25 -105.28,254.78 -105.28,396.31 0,110.42 20.61,217.5 65.16,318.6 42.76,97.04 101.92,184.12 176.92,259.13 75.17,75.17 162.63,133.31 259.95,176.03 101.25,44.44 209.05,65.18 319.52,65.18 110.47,0 218.27,-20.73 319.52,-65.17 97.4,-42.74 184.74,-101.72 259.94,-176.9 75.2,-75.2 134.17,-162.55 176.91,-259.95 44.43,-101.25 65.16,-209.05 65.16,-319.51 0,-110.47 -20.72,-218.27 -65.15,-319.53 -42.7,-97.32 -100.89,-184.77 -176.05,-259.94 -75.01,-75 -162.09,-134.17 -259.12,-176.93 -101.11,-44.56 -208.19,-65.15 -318.61,-65.15 -141.53,0 -274.06,33.97 -396.32,105.27l-0.77 0.45c-44.74,24.41 -92.73,30.38 -141.58,15.53 -48.75,-14.84 -85.36,-46.02 -109.72,-90.66 -24.06,-44.1 -31.31,-90.83 -18.46,-139.55 12.95,-49.1 44.03,-85.17 88.49,-109.19 180.3,-97.41 373.47,-147.25 578.36,-147.25zm1643.26 183.94c-1.42,-36.59 -1.45,-73.21 -0.08,-109.73 7.19,-341.07 132.35,-632.81 376.18,-876.63 250.45,-250.48 553.37,-375.7 907.94,-375.7l105.68 0c266.11,0 509.55,-54.8 729.49,-164.38 25.07,-12.52 52.47,-18.79 82.99,-18.79 50.09,0 93.92,18.01 129.93,54.01 35.22,36 53.22,79.04 53.22,129.16 0,50.09 -17.22,93.13 -52.46,128.37 -15.64,14.88 -31.28,27.41 -48.51,36.78 -269.26,133.85 -567.49,201.17 -894.66,201.17l-105.68 0c-253.59,0 -470.43,89.23 -649.65,267.72 -254.62,253.49 -287.99,544.51 -266.42,884.79 98.26,-88.42 208.83,-160.88 329.26,-216.92 151.55,-70.51 312.22,-102.91 479.3,-102.91 158.2,0 310.27,30.54 455.13,93.93 140.38,61.42 265.62,145.18 373.95,253.51 108.09,108.09 192.06,233.93 253.5,373.89 63.55,144.83 93.93,296.99 93.93,455.19 0,157.91 -29.42,310.11 -92.13,455.03 -60.5,139.85 -144.37,265.7 -251.73,373.96 -107.7,108.61 -233.96,192.33 -374.03,253.6 -144.89,63.4 -297.82,93.94 -456.02,93.94 -219.32,0 -423.15,-58.2 -610.95,-171.46 -42.09,-25.38 -69.58,-62.71 -81.99,-110.26 -13.08,-50.09 -3.21,-97.79 24.19,-141.28 24.53,-44.48 61.76,-74.32 111.69,-85.19 48.68,-10.58 95.47,-2.4 139.11,21.39l1.05 0.57 1.01 0.66c126.23,81.87 265.51,120.13 415.9,120.13 108.9,0 213.77,-21.25 313.38,-65.14 96.96,-42.73 184.2,-101.13 259.13,-176.06 74.65,-74.64 132.11,-161.61 173.27,-258.71 42.39,-100.01 62.72,-205.15 62.72,-313.8 0,-108.64 -20.34,-213.77 -62.72,-313.78 -41.17,-97.13 -98.62,-184.09 -173.27,-258.74 -74.65,-74.64 -161.6,-132.1 -258.72,-173.25 -100.01,-42.38 -205.15,-62.73 -313.79,-62.73 -108.64,0 -213.78,20.35 -313.79,62.73 -97.12,41.15 -184.08,98.61 -258.71,173.25 -74.93,74.94 -133.3,162.18 -176.05,259.15 -43.9,99.62 -65.18,204.49 -65.18,313.37l0 996.42c0,50.1 -18.12,93.75 -53.54,129.18 -35.42,35.41 -79.05,53.54 -129.15,53.54 -50.1,0 -93.74,-18.12 -129.17,-53.55 -35.41,-35.41 -53.53,-79.08 -53.53,-129.17l0 -2007.26zm12072.67 1771.58c28.7,41.82 37.16,88.95 24.57,138.25 -12.68,49.63 -42.79,87.81 -88.02,111.76 -187.18,113.19 -391.39,168.37 -610.18,168.37 -160.57,0 -316.3,-30.18 -463.71,-93.87 -141.11,-60.97 -268.5,-145.32 -376.77,-254.53 -108.12,-109.05 -191.63,-236.35 -251.8,-377.61 -62.83,-147.5 -92.07,-303.3 -92.07,-463.56 0,-160.57 30.19,-316.31 93.89,-463.72 61.09,-141.38 145.5,-268.63 254.42,-377.55 108.92,-108.91 236.16,-193.34 377.53,-254.42 147.41,-63.7 303.16,-93.88 463.73,-93.88 168.23,0 330.19,33.82 482.75,104.66 124.46,57.78 237.12,133.2 336.19,226.48l0 -143.21c0,-49.7 17.61,-93.57 52.52,-129 34.9,-35.42 77.84,-53.72 127.57,-53.72 51.26,0 96.59,16.95 132.81,53.71 34.92,35.43 52.52,79.3 52.52,129.01l0 2008.49c0,49.7 -17.6,93.58 -52.52,129.01 -36.21,36.77 -81.55,53.71 -132.81,53.71 -49.73,0 -92.68,-18.27 -127.57,-53.71 -34.92,-35.42 -52.52,-79.29 -52.52,-129.01l0 -1009.46c0,-110.85 -20.61,-217.97 -65.18,-319.52 -42.77,-97.45 -101.98,-184.59 -176.96,-260.01 -75.16,-75.57 -162.28,-134.02 -259.89,-176.85 -101.25,-44.43 -209.05,-65.16 -319.51,-65.16 -110.37,0 -218.36,20.33 -319.42,65.12 -97.67,43.26 -184.69,102.07 -259.98,177.77 -75.06,75.47 -134.22,163.4 -176.98,260.87 -44.59,101.63 -65.17,209.54 -65.17,320.4 0,110.85 20.58,218.77 65.17,320.39 42.72,97.37 101.09,185.45 176.11,260.89 75.05,75.47 161.88,134.48 259.16,177.76 100.92,44.91 208.18,65.11 318.51,65.11 151.3,0 292.48,-37.09 421.35,-115.07 43.74,-27.82 91.74,-37.92 142.18,-24.77 48.94,12.77 85.68,42.92 110.11,86.87zm-3452.51 -745.39l0 981.07c0,53.33 -24.22,97.14 -64.72,131.05 -41.52,34.75 -91.25,51.66 -145.29,51.66 -53.86,0 -102.15,-16.56 -142.78,-52.1 -39.11,-34.21 -61.2,-78.28 -61.2,-130.61l0 -3338.81c0,-52.32 22.09,-96.39 61.2,-130.59 40.63,-35.55 88.91,-52.11 142.78,-52.11 54.04,0 103.76,16.92 145.29,51.67 40.51,33.9 64.72,77.72 64.72,131.03l0 1871.12 845.53 -659.64c42.99,-32.93 93.34,-47.51 147.36,-45.58 54.3,1.95 102.68,20.46 141.81,58.39 37.36,36.22 57.45,81.39 54.93,133.63 -2.55,52.98 -28.09,95.29 -69.59,127.6l-1120.03 872.22zm1355.17 840.79c44.28,30.67 74.27,72.45 79.54,126.82 5.12,52.87 -13.77,98.54 -51.87,135.23 -44.33,42.67 -99.94,60.94 -161.03,60.94 -49.03,0 -94.45,-13.38 -133.82,-42.76l-902.4 -673.21c-41.54,-31.83 -67.65,-73.89 -72.7,-126.26 -5.1,-52.85 13.85,-98.38 51.79,-135.13 38.87,-37.69 86.84,-57.07 140.69,-60.94 54.59,-3.92 104.95,9.56 148.18,42.68l901.62 672.64zm-2931.03 -95.4c28.71,41.82 37.15,88.95 24.57,138.25 -12.67,49.63 -42.79,87.81 -88.02,111.76 -187.18,113.19 -391.38,168.37 -610.18,168.37 -160.56,0 -316.32,-30.17 -463.72,-93.87 -141.11,-60.97 -268.47,-145.33 -376.76,-254.53 -108.13,-109.05 -191.63,-236.34 -251.8,-377.61 -62.82,-147.5 -92.07,-303.3 -92.07,-463.56 0,-160.57 30.2,-316.31 93.89,-463.72 61.08,-141.37 145.5,-268.63 254.42,-377.55 108.92,-108.92 236.15,-193.33 377.54,-254.42 147.41,-63.7 303.15,-93.88 463.72,-93.88 168.23,0 330.18,33.81 482.75,104.66 124.45,57.79 237.11,133.2 336.19,226.48l0 -143.21c0,-49.71 17.61,-93.56 52.52,-129 34.91,-35.42 77.85,-53.72 127.58,-53.72 51.25,0 96.58,16.95 132.8,53.72 34.91,35.42 52.51,79.29 52.51,129l0 2008.49c0,49.7 -17.6,93.58 -52.5,129.01 -36.23,36.78 -81.55,53.71 -132.81,53.71 -49.74,0 -92.69,-18.27 -127.59,-53.71 -34.9,-35.43 -52.51,-79.29 -52.51,-129.01l0 -1009.46c0,-110.84 -20.6,-217.97 -65.17,-319.51 -42.77,-97.46 -101.99,-184.6 -176.97,-260.02 -75.16,-75.57 -162.27,-134.02 -259.88,-176.85 -101.26,-44.43 -209.06,-65.16 -319.53,-65.16 -110.36,0 -218.34,20.33 -319.4,65.12 -97.66,43.26 -184.71,102.07 -259.99,177.77 -75.06,75.47 -134.2,163.41 -176.97,260.87 -44.6,101.63 -65.17,209.54 -65.17,320.4 0,110.85 20.57,218.77 65.17,320.39 42.73,97.36 101.09,185.45 176.1,260.89 75.05,75.46 161.88,134.48 259.17,177.76 100.92,44.91 208.18,65.11 318.5,65.11 151.32,0 292.5,-37.09 421.36,-115.06 43.72,-27.83 91.75,-37.93 142.17,-24.79 48.95,12.77 85.68,42.92 110.11,86.87zm-3437.78 -1379.69c45.04,21.04 77.43,55.57 97.3,101.24 20.59,47.36 21.21,95.81 0.06,142.29l-615.86 1435.26c-20.54,45.17 -53.91,78.53 -99.08,99.07 -46.5,21.14 -94.26,21.15 -140.77,0 -46.06,-20.94 -79.13,-55.8 -99.27,-102.14 -20.6,-47.38 -21.2,-95.79 -0.08,-142.26l615.81 -1440.39 0.24 -0.52c33.21,-70.53 91.46,-106.71 169.28,-106.71 23.03,0 51.94,1.88 72.36,14.15z"/>
  </g>
  <g id="_2341911054944">
   <path class="fil3" d="M596.34 8369.57l-156.59 0 0 376.55 -138.87 0 0 -376.55 -156.6 0 0 -113.71 452.05 0 0 113.71zm542.47 130.49c0,38.52 -5.59,73.79 -16.78,105.79 -11.18,32 -27.34,59.35 -48.46,82.02 -21.13,22.68 -46.45,40.24 -75.97,52.67 -29.51,12.43 -62.6,18.64 -99.26,18.64 -36.03,0 -68.82,-6.21 -98.33,-18.64 -29.52,-12.43 -54.84,-29.99 -75.97,-52.67 -21.13,-22.67 -37.59,-50.02 -49.4,-82.02 -11.81,-32 -17.71,-67.26 -17.71,-105.79 0,-38.52 6.07,-73.63 18.18,-105.33 12.11,-31.68 28.89,-58.72 50.33,-81.09 21.44,-22.37 46.92,-39.76 76.43,-52.19 29.52,-12.43 61.67,-18.64 96.47,-18.64 35.42,0 67.89,6.21 97.4,18.64 29.52,12.43 54.83,29.83 75.96,52.19 21.13,22.38 37.6,49.41 49.41,81.09 11.8,31.7 17.7,66.8 17.7,105.33zm-141.67 0c0,-42.88 -8.55,-76.59 -25.64,-101.13 -17.08,-24.54 -41.47,-36.82 -73.17,-36.82 -31.68,0 -56.24,12.28 -73.63,36.82 -17.4,24.54 -26.1,58.25 -26.1,101.13 0,42.87 8.7,76.9 26.1,102.06 17.4,25.17 41.95,37.75 73.63,37.75 31.7,0 56.08,-12.58 73.17,-37.75 17.09,-25.16 25.64,-59.18 25.64,-102.06zm562.96 4.65c0,-42.87 -9.62,-77.2 -28.89,-102.99 -19.26,-25.79 -47.84,-38.68 -85.75,-38.68 -12.43,0 -23.92,0.47 -34.49,1.39 -10.56,0.93 -19.26,2.02 -26.1,3.26l0 250.73c8.7,5.6 20.04,10.25 34.02,13.98 13.98,3.73 28.12,5.59 42.41,5.59 65.87,0 98.79,-44.43 98.79,-133.28zm141.68 -3.73c0,37.9 -4.66,72.39 -13.98,103.46 -9.32,31.08 -22.99,57.79 -41,80.16 -18.03,22.38 -40.39,39.77 -67.11,52.2 -26.73,12.43 -57.49,18.64 -92.28,18.64 -19.26,0 -37.28,-1.86 -54.06,-5.59 -16.78,-3.73 -32.92,-9.01 -48.46,-15.84l0 184.54 -138.88 0 0 -645.91c12.43,-3.73 26.73,-7.31 42.88,-10.72 16.15,-3.41 33.09,-6.37 50.79,-8.85 17.71,-2.49 35.73,-4.51 54.06,-6.07 18.33,-1.54 35.89,-2.33 52.66,-2.33 40.39,0 76.44,6.06 108.12,18.18 31.7,12.11 58.41,29.21 80.16,51.26 21.75,22.06 38.37,48.94 49.86,80.62 11.49,31.7 17.24,67.11 17.24,106.25zm454.84 -131.41l-208.78 0 0 376.55 -138.88 0 0 -490.26 347.66 0 0 113.71zm533.15 130.49c0,38.52 -5.59,73.79 -16.78,105.79 -11.18,32 -27.34,59.35 -48.46,82.02 -21.13,22.68 -46.45,40.24 -75.97,52.67 -29.51,12.43 -62.6,18.64 -99.26,18.64 -36.03,0 -68.82,-6.21 -98.33,-18.64 -29.52,-12.43 -54.84,-29.99 -75.97,-52.67 -21.13,-22.67 -37.59,-50.02 -49.4,-82.02 -11.81,-32 -17.71,-67.26 -17.71,-105.79 0,-38.52 6.07,-73.63 18.18,-105.33 12.11,-31.68 28.89,-58.72 50.33,-81.09 21.44,-22.37 46.92,-39.76 76.43,-52.19 29.52,-12.43 61.67,-18.64 96.47,-18.64 35.42,0 67.89,6.21 97.4,18.64 29.52,12.43 54.83,29.83 75.96,52.19 21.13,22.38 37.6,49.41 49.41,81.09 11.8,31.7 17.7,66.8 17.7,105.33zm-141.67 0c0,-42.88 -8.55,-76.59 -25.64,-101.13 -17.08,-24.54 -41.47,-36.82 -73.17,-36.82 -31.68,0 -56.24,12.28 -73.63,36.82 -17.4,24.54 -26.1,58.25 -26.1,101.13 0,42.87 8.7,76.9 26.1,102.06 17.4,25.17 41.95,37.75 73.63,37.75 31.7,0 56.08,-12.58 73.17,-37.75 17.09,-25.16 25.64,-59.18 25.64,-102.06zm387.74 143.54c8.7,1.24 20.34,2.33 34.95,3.26 14.6,0.92 28.12,1.39 40.55,1.39 31.08,0 55.3,-3.88 72.71,-11.65 17.4,-7.77 26.1,-21.91 26.1,-42.42 0,-19.88 -7.93,-33.71 -23.77,-41.47 -15.84,-7.76 -38.99,-11.66 -69.44,-11.66l-81.09 0 0 102.53zm78.29 -195.74c23,0 41.63,-2.95 55.93,-8.85 14.29,-5.9 21.43,-18.8 21.43,-38.68 0,-18.65 -8.08,-31.38 -24.23,-38.22 -16.16,-6.84 -37.28,-10.25 -63.38,-10.25 -8.71,0 -20.04,0.47 -34.02,1.4 -13.98,0.92 -25.32,2.01 -34.02,3.26l0 91.34 78.29 0zm-4.65 307.58c-17.4,0 -36.04,-0.62 -55.92,-1.86 -19.89,-1.25 -39.46,-2.96 -58.73,-5.13 -19.26,-2.17 -37.44,-4.65 -54.53,-7.45 -17.08,-2.8 -31.53,-5.45 -43.34,-7.93l0 -469.76c11.81,-2.49 26.26,-4.82 43.34,-6.99 17.09,-2.17 35.27,-4.2 54.53,-6.07 19.27,-1.86 38.84,-3.26 58.73,-4.19 19.88,-0.93 38.52,-1.4 55.92,-1.4 40.38,0 74.41,4.04 102.06,12.11 27.65,8.08 50.03,18.65 67.11,31.7 17.09,13.05 29.36,27.65 36.82,43.81 7.46,16.16 11.19,32.32 11.19,48.46 0,21.76 -5.28,41.63 -15.84,59.66 -10.57,18.02 -23.93,31.07 -40.08,39.14 8.7,3.73 17.55,9 26.56,15.84 9,6.84 17.23,15.07 24.69,24.7 7.46,9.62 13.52,21.13 18.18,34.48 4.65,13.36 6.99,28.74 6.99,46.15 0,19.88 -3.88,39.14 -11.66,57.78 -7.76,18.65 -20.97,35.11 -39.61,49.4 -18.64,14.3 -43.19,25.79 -73.63,34.49 -30.45,8.7 -68.04,13.05 -112.78,13.05zm803.43 -255.38c0,38.52 -5.59,73.79 -16.78,105.79 -11.18,32 -27.34,59.35 -48.46,82.02 -21.13,22.68 -46.45,40.24 -75.97,52.67 -29.51,12.43 -62.6,18.64 -99.26,18.64 -36.03,0 -68.82,-6.21 -98.33,-18.64 -29.52,-12.43 -54.84,-29.99 -75.97,-52.67 -21.13,-22.67 -37.59,-50.02 -49.4,-82.02 -11.81,-32 -17.71,-67.26 -17.71,-105.79 0,-38.52 6.07,-73.63 18.18,-105.33 12.11,-31.68 28.89,-58.72 50.33,-81.09 21.44,-22.37 46.92,-39.76 76.43,-52.19 29.52,-12.43 61.67,-18.64 96.47,-18.64 35.42,0 67.89,6.21 97.4,18.64 29.52,12.43 54.83,29.83 75.96,52.19 21.13,22.38 37.6,49.41 49.41,81.09 11.8,31.7 17.7,66.8 17.7,105.33zm-141.67 0c0,-42.88 -8.55,-76.59 -25.64,-101.13 -17.08,-24.54 -41.47,-36.82 -73.17,-36.82 -31.68,0 -56.24,12.28 -73.63,36.82 -17.4,24.54 -26.1,58.25 -26.1,101.13 0,42.87 8.7,76.9 26.1,102.06 17.4,25.17 41.95,37.75 73.63,37.75 31.7,0 56.08,-12.58 73.17,-37.75 17.09,-25.16 25.64,-59.18 25.64,-102.06zm218.1 -95.08l270.3 0 0 125.83 -270.3 0 0 -125.83zm685.07 99.73c0,-42.87 -9.62,-77.2 -28.89,-102.99 -19.26,-25.79 -47.84,-38.68 -85.75,-38.68 -12.43,0 -23.92,0.47 -34.49,1.39 -10.56,0.93 -19.26,2.02 -26.1,3.26l0 250.73c8.7,5.6 20.04,10.25 34.02,13.98 13.98,3.73 28.12,5.59 42.41,5.59 65.87,0 98.79,-44.43 98.79,-133.28zm141.68 -3.73c0,37.9 -4.66,72.39 -13.98,103.46 -9.32,31.08 -22.99,57.79 -41,80.16 -18.03,22.38 -40.39,39.77 -67.11,52.2 -26.73,12.43 -57.49,18.64 -92.28,18.64 -19.26,0 -37.28,-1.86 -54.06,-5.59 -16.78,-3.73 -32.92,-9.01 -48.46,-15.84l0 184.54 -138.88 0 0 -645.91c12.43,-3.73 26.73,-7.31 42.88,-10.72 16.15,-3.41 33.09,-6.37 50.79,-8.85 17.71,-2.49 35.73,-4.51 54.06,-6.07 18.33,-1.54 35.89,-2.33 52.66,-2.33 40.39,0 76.44,6.06 108.12,18.18 31.7,12.11 58.41,29.21 80.16,51.26 21.75,22.06 38.37,48.94 49.86,80.62 11.49,31.7 17.24,67.11 17.24,106.25zm294.52 148.2c13.68,0 26.73,-0.32 39.15,-0.93 12.43,-0.62 22.37,-1.55 29.83,-2.79l0 -105.32c-5.6,-1.25 -13.98,-2.49 -25.17,-3.73 -11.18,-1.25 -21.43,-1.87 -30.76,-1.87 -13.05,0 -25.31,0.78 -36.81,2.34 -11.5,1.55 -21.59,4.5 -30.29,8.85 -8.7,4.35 -15.54,10.25 -20.51,17.71 -4.97,7.45 -7.46,16.78 -7.46,27.96 0,21.75 7.3,36.82 21.9,45.21 14.6,8.38 34.64,12.58 60.12,12.58zm-11.18 -406.38c41,0 75.19,4.65 102.52,13.97 27.35,9.33 49.24,22.68 65.71,40.08 16.47,17.41 28.12,38.53 34.96,63.39 6.84,24.85 10.25,52.5 10.25,82.95l0 288.93c-19.89,4.35 -47.54,9.48 -82.95,15.39 -35.42,5.89 -78.3,8.85 -128.63,8.85 -31.68,0 -60.42,-2.79 -86.21,-8.39 -25.79,-5.59 -48.01,-14.76 -66.64,-27.49 -18.64,-12.74 -32.93,-29.37 -42.87,-49.86 -9.95,-20.51 -14.92,-45.68 -14.92,-75.5 0,-28.59 5.75,-52.81 17.24,-72.7 11.49,-19.89 26.88,-35.73 46.14,-47.54 19.27,-11.81 41.33,-20.34 66.17,-25.63 24.86,-5.28 50.65,-7.93 77.36,-7.93 18.03,0 34.02,0.78 48.01,2.34 13.98,1.54 25.32,3.57 34.02,6.06l0 -13.05c0,-23.62 -7.14,-42.57 -21.44,-56.86 -14.29,-14.3 -39.14,-21.44 -74.57,-21.44 -23.61,0 -46.91,1.71 -69.9,5.13 -22.99,3.41 -42.87,8.23 -59.65,14.44l-17.7 -111.84c8.07,-2.49 18.17,-5.13 30.28,-7.93 12.12,-2.79 25.32,-5.28 39.62,-7.46 14.29,-2.17 29.36,-4.03 45.2,-5.59 15.84,-1.55 31.85,-2.33 48.01,-2.33zm315.97 28.89c21.76,-8.08 46.92,-14.6 75.5,-19.57 28.59,-4.97 59.65,-7.46 93.21,-7.46 25.48,0 50.33,2.33 74.57,6.99 24.23,4.66 45.82,12.43 64.77,23.3 18.95,10.87 34.17,25.17 45.68,42.87 11.49,17.71 17.23,39.93 17.23,66.64 0,24.24 -5.59,44.9 -16.78,61.99 -11.18,17.08 -27.02,31.22 -47.53,42.41 27.34,11.81 47.53,27.34 60.59,46.6 13.05,19.27 19.57,43.81 19.57,73.63 0,27.97 -5.9,51.42 -17.71,70.37 -11.81,18.95 -27.65,34.33 -47.54,46.14 -19.89,11.81 -42.56,20.35 -68.03,25.63 -25.48,5.28 -51.89,7.93 -79.23,7.93 -16.16,0 -32.93,-0.77 -50.33,-2.33 -17.4,-1.55 -34.33,-3.73 -50.79,-6.52 -16.47,-2.79 -32.16,-6.37 -47.07,-10.72 -14.92,-4.35 -28.28,-9.01 -40.08,-13.98l25.16 -108.11c13.05,4.97 33.09,10.87 60.12,17.7 27.03,6.84 57.64,10.25 91.81,10.25 55.92,0 83.89,-15.54 83.89,-46.6 0,-10.56 -2.18,-19.1 -6.53,-25.63 -4.35,-6.52 -10.09,-11.66 -17.23,-15.39 -7.15,-3.73 -15.39,-6.21 -24.7,-7.45 -9.32,-1.25 -18.64,-1.87 -27.97,-1.87l-109.05 0 0 -98.79 109.98 0c22.37,0 38.06,-4.51 47.07,-13.52 9.01,-9.01 13.52,-19.42 13.52,-31.23 0,-11.81 -5.12,-22.52 -15.38,-32.15 -10.25,-9.63 -29.05,-14.45 -56.4,-14.45 -27.34,0 -53.13,2.49 -77.35,7.46 -24.24,4.97 -43.81,9.63 -58.73,13.98l-24.24 -108.12zm623.56 371.9c8.7,1.24 20.34,2.33 34.95,3.26 14.6,0.92 28.12,1.39 40.55,1.39 31.08,0 55.3,-3.88 72.71,-11.65 17.4,-7.77 26.1,-21.91 26.1,-42.42 0,-19.88 -7.93,-33.71 -23.77,-41.47 -15.84,-7.76 -38.99,-11.66 -69.44,-11.66l-81.09 0 0 102.53zm78.29 -195.74c23,0 41.63,-2.95 55.93,-8.85 14.29,-5.9 21.43,-18.8 21.43,-38.68 0,-18.65 -8.08,-31.38 -24.23,-38.22 -16.16,-6.84 -37.28,-10.25 -63.38,-10.25 -8.71,0 -20.04,0.47 -34.02,1.4 -13.98,0.92 -25.32,2.01 -34.02,3.26l0 91.34 78.29 0zm-4.65 307.58c-17.4,0 -36.04,-0.62 -55.92,-1.86 -19.89,-1.25 -39.46,-2.96 -58.73,-5.13 -19.26,-2.17 -37.44,-4.65 -54.53,-7.45 -17.08,-2.8 -31.53,-5.45 -43.34,-7.93l0 -469.76c11.81,-2.49 26.26,-4.82 43.34,-6.99 17.09,-2.17 35.27,-4.2 54.53,-6.07 19.27,-1.86 38.84,-3.26 58.73,-4.19 19.88,-0.93 38.52,-1.4 55.92,-1.4 40.38,0 74.41,4.04 102.06,12.11 27.65,8.08 50.03,18.65 67.11,31.7 17.09,13.05 29.36,27.65 36.82,43.81 7.46,16.16 11.19,32.32 11.19,48.46 0,21.76 -5.28,41.63 -15.84,59.66 -10.57,18.02 -23.93,31.07 -40.08,39.14 8.7,3.73 17.55,9 26.56,15.84 9,6.84 17.23,15.07 24.69,24.7 7.46,9.62 13.52,21.13 18.18,34.48 4.65,13.36 6.99,28.74 6.99,46.15 0,19.88 -3.88,39.14 -11.66,57.78 -7.76,18.65 -20.97,35.11 -39.61,49.4 -18.64,14.3 -43.19,25.79 -73.63,34.49 -30.45,8.7 -68.04,13.05 -112.78,13.05zm564.83 -385.87c-0.63,18.02 -1.4,37.12 -2.34,57.32 -0.92,20.19 -2.64,40.38 -5.12,60.58 -2.49,20.2 -5.75,39.93 -9.79,59.19 -4.04,19.26 -9.17,37.28 -15.39,54.06 -7.45,19.88 -16.93,38.36 -28.42,55.45 -11.49,17.08 -26.1,32.47 -43.81,46.14 -17.71,13.67 -39.14,25.01 -64.32,34.02 -25.16,9.01 -54.52,15.07 -88.07,18.17l-18.65 -115.57c31.7,-6.21 56.24,-15.07 73.63,-26.56 17.4,-11.49 30.45,-26.25 39.14,-44.28 6.84,-15.53 12.28,-33.55 16.32,-54.06 4.03,-20.5 6.98,-42.09 8.85,-64.77 1.86,-22.68 2.95,-45.83 3.26,-69.44 0.32,-23.62 0.47,-46.3 0.47,-68.04l0 -55.92 368.17 0 0 490.26 -138.88 0 0 -376.55 -95.07 0zm341.13 135.14c0,-43.49 6.69,-81.55 20.04,-114.18 13.36,-32.62 30.92,-59.8 52.67,-81.55 21.75,-21.75 46.76,-38.22 75.03,-49.4 28.27,-11.19 57.32,-16.78 87.15,-16.78 69.6,0 124.59,21.28 164.98,63.85 40.38,42.56 60.59,105.17 60.59,187.8 0,8.08 -0.32,16.94 -0.93,26.56 -0.62,9.63 -1.24,18.18 -1.87,25.64l-315.03 0c3.1,28.58 16.46,51.26 40.08,68.03 23.61,16.78 55.3,25.17 95.07,25.17 25.48,0 50.49,-2.33 75.04,-6.99 24.54,-4.66 44.58,-10.41 60.12,-17.24l18.64 112.78c-7.45,3.73 -17.4,7.46 -29.83,11.19 -12.43,3.73 -26.25,6.99 -41.47,9.79 -15.22,2.79 -31.54,5.12 -48.94,6.99 -17.4,1.86 -34.79,2.79 -52.19,2.79 -44.12,0 -82.48,-6.52 -115.11,-19.57 -32.62,-13.05 -59.65,-30.91 -81.08,-53.59 -21.44,-22.68 -37.28,-49.56 -47.54,-80.62 -10.25,-31.07 -15.39,-64.62 -15.39,-100.66zm326.23 -53.13c-0.62,-11.81 -2.64,-23.3 -6.06,-34.49 -3.42,-11.18 -8.7,-21.13 -15.85,-29.83 -7.14,-8.7 -16.15,-15.84 -27.03,-21.43 -10.87,-5.59 -24.39,-8.39 -40.54,-8.39 -15.54,0 -28.9,2.64 -40.08,7.93 -11.19,5.28 -20.51,12.28 -27.97,20.97 -7.46,8.7 -13.2,18.79 -17.24,30.29 -4.03,11.49 -6.99,23.14 -8.85,34.95l183.62 0zm380.28 -24.69c13.36,-13.06 27.65,-27.35 42.87,-42.88 15.38,-15.38 30.14,-30.75 44.58,-45.82 14.3,-15.22 27.97,-29.99 40.86,-44.43 12.9,-14.45 24.54,-27.03 34.79,-37.9l168.71 0c-12.28,13.2 -27.65,29.36 -45.98,48.62 -18.33,19.26 -37.75,39.3 -58.26,60.12 -20.51,20.81 -41.17,41.47 -61.98,61.98 -20.82,20.51 -40.39,38.52 -58.88,54.37 18.64,14.3 38.37,32.16 59.5,53.44 20.97,21.13 41.63,43.81 61.83,68.04 20.19,24.23 39.46,48.78 57.79,73.63 18.33,24.86 33.86,48.31 46.91,70.06l-158.14 0c-11.18,-16.78 -23.92,-34.49 -38.21,-52.82 -14.3,-18.32 -29.21,-36.5 -44.59,-54.37 -15.38,-17.86 -31.07,-34.64 -47.06,-50.18 -16.01,-15.69 -30.92,-29.04 -44.74,-40.38l0 197.75 -138.88 0 0 -490.26 138.88 0 0 171.04zm585.33 222.29c13.68,0 26.73,-0.32 39.15,-0.93 12.43,-0.62 22.37,-1.55 29.83,-2.79l0 -105.32c-5.6,-1.25 -13.98,-2.49 -25.17,-3.73 -11.18,-1.25 -21.43,-1.87 -30.76,-1.87 -13.05,0 -25.31,0.78 -36.81,2.34 -11.5,1.55 -21.59,4.5 -30.29,8.85 -8.7,4.35 -15.54,10.25 -20.51,17.71 -4.97,7.45 -7.46,16.78 -7.46,27.96 0,21.75 7.3,36.82 21.9,45.21 14.6,8.38 34.64,12.58 60.12,12.58zm-11.18 -406.38c41,0 75.19,4.65 102.52,13.97 27.35,9.33 49.24,22.68 65.71,40.08 16.47,17.41 28.12,38.53 34.96,63.39 6.84,24.85 10.25,52.5 10.25,82.95l0 288.93c-19.89,4.35 -47.54,9.48 -82.95,15.39 -35.42,5.89 -78.3,8.85 -128.63,8.85 -31.68,0 -60.42,-2.79 -86.21,-8.39 -25.79,-5.59 -48.01,-14.76 -66.64,-27.49 -18.64,-12.74 -32.93,-29.37 -42.87,-49.86 -9.95,-20.51 -14.92,-45.68 -14.92,-75.5 0,-28.59 5.75,-52.81 17.24,-72.7 11.49,-19.89 26.88,-35.73 46.14,-47.54 19.27,-11.81 41.33,-20.34 66.17,-25.63 24.86,-5.28 50.65,-7.93 77.36,-7.93 18.03,0 34.02,0.78 48.01,2.34 13.98,1.54 25.32,3.57 34.02,6.06l0 -13.05c0,-23.62 -7.14,-42.57 -21.44,-56.86 -14.29,-14.3 -39.14,-21.44 -74.57,-21.44 -23.61,0 -46.91,1.71 -69.9,5.13 -22.99,3.41 -42.87,8.23 -59.65,14.44l-17.7 -111.84c8.07,-2.49 18.17,-5.13 30.28,-7.93 12.12,-2.79 25.32,-5.28 39.62,-7.46 14.29,-2.17 29.36,-4.03 45.2,-5.59 15.84,-1.55 31.85,-2.33 48.01,-2.33zm744.72 126.76l-156.59 0 0 376.55 -138.87 0 0 -376.55 -156.6 0 0 -113.71 452.05 0 0 113.71zm60.59 135.14c0,-43.49 6.69,-81.55 20.04,-114.18 13.36,-32.62 30.92,-59.8 52.67,-81.55 21.75,-21.75 46.76,-38.22 75.03,-49.4 28.27,-11.19 57.32,-16.78 87.15,-16.78 69.6,0 124.59,21.28 164.98,63.85 40.38,42.56 60.59,105.17 60.59,187.8 0,8.08 -0.32,16.94 -0.93,26.56 -0.62,9.63 -1.24,18.18 -1.87,25.64l-315.03 0c3.1,28.58 16.46,51.26 40.08,68.03 23.61,16.78 55.3,25.17 95.07,25.17 25.48,0 50.49,-2.33 75.04,-6.99 24.54,-4.66 44.58,-10.41 60.12,-17.24l18.64 112.78c-7.45,3.73 -17.4,7.46 -29.83,11.19 -12.43,3.73 -26.25,6.99 -41.47,9.79 -15.22,2.79 -31.54,5.12 -48.94,6.99 -17.4,1.86 -34.79,2.79 -52.19,2.79 -44.12,0 -82.48,-6.52 -115.11,-19.57 -32.62,-13.05 -59.65,-30.91 -81.08,-53.59 -21.44,-22.68 -37.28,-49.56 -47.54,-80.62 -10.25,-31.07 -15.39,-64.62 -15.39,-100.66zm326.23 -53.13c-0.62,-11.81 -2.64,-23.3 -6.06,-34.49 -3.42,-11.18 -8.7,-21.13 -15.85,-29.83 -7.14,-8.7 -16.15,-15.84 -27.03,-21.43 -10.87,-5.59 -24.39,-8.39 -40.54,-8.39 -15.54,0 -28.9,2.64 -40.08,7.93 -11.19,5.28 -20.51,12.28 -27.97,20.97 -7.46,8.7 -13.2,18.79 -17.24,30.29 -4.03,11.49 -6.99,23.14 -8.85,34.95l183.62 0zm461.37 -82.02c-0.63,18.02 -1.4,37.12 -2.34,57.32 -0.92,20.19 -2.64,40.38 -5.12,60.58 -2.49,20.2 -5.75,39.93 -9.79,59.19 -4.04,19.26 -9.17,37.28 -15.39,54.06 -7.45,19.88 -16.93,38.36 -28.42,55.45 -11.49,17.08 -26.1,32.47 -43.81,46.14 -17.71,13.67 -39.14,25.01 -64.32,34.02 -25.16,9.01 -54.52,15.07 -88.07,18.17l-18.65 -115.57c31.7,-6.21 56.24,-15.07 73.63,-26.56 17.4,-11.49 30.45,-26.25 39.14,-44.28 6.84,-15.53 12.28,-33.55 16.32,-54.06 4.03,-20.5 6.98,-42.09 8.85,-64.77 1.86,-22.68 2.95,-45.83 3.26,-69.44 0.32,-23.62 0.47,-46.3 0.47,-68.04l0 -55.92 368.17 0 0 490.26 -138.88 0 0 -376.55 -95.07 0zm572.28 279.62c25.48,0 45.52,-4.82 60.12,-14.45 14.6,-9.62 21.91,-25.31 21.91,-47.07 0,-11.18 -2.49,-20.66 -7.46,-28.42 -4.97,-7.76 -11.81,-13.98 -20.51,-18.64 -8.7,-4.66 -18.8,-7.93 -30.29,-9.8 -11.49,-1.86 -23.77,-2.79 -36.82,-2.79 -9.32,0 -19.57,0.62 -30.76,1.87 -11.18,1.24 -19.57,2.48 -25.16,3.73l0 111.84c7.46,1.24 17.4,2.17 29.83,2.79 12.43,0.62 25.48,0.93 39.14,0.93zm-68.97 -219.03c8.7,-2.49 20.04,-4.51 34.02,-6.07 13.98,-1.54 29.98,-2.33 47.99,-2.33 29.21,0 56.39,3.41 81.56,10.25 25.16,6.84 47.07,17.24 65.71,31.23 18.65,13.97 33.25,31.68 43.81,53.13 10.57,21.43 15.84,46.45 15.84,75.03 0,28.59 -4.97,53.29 -14.91,74.1 -9.94,20.82 -24.24,37.9 -42.87,51.27 -18.65,13.35 -40.86,23.3 -66.64,29.83 -25.79,6.52 -54.53,9.79 -86.22,9.79 -41,0 -78.6,-2.02 -112.78,-6.06 -34.17,-4.04 -68.97,-10.41 -104.39,-19.11l0 -475.35 138.88 0 0 174.3zm809.03 315.97l-138.87 0 0 -193.87 -144.47 0 0 193.87 -138.88 0 0 -490.26 138.88 0 0 182.68 144.47 0 0 -182.68 138.87 0 0 490.26zm768.03 0l-138.88 0 0 -490.26 138.88 0 0 490.26zm-429.69 -96.93c25.48,0 45.52,-4.82 60.12,-14.45 14.6,-9.62 21.91,-25.31 21.91,-47.07 0,-11.18 -2.49,-20.66 -7.46,-28.42 -4.97,-7.76 -11.81,-13.98 -20.51,-18.64 -8.7,-4.66 -18.8,-7.93 -30.29,-9.8 -11.49,-1.86 -23.77,-2.79 -36.82,-2.79 -9.32,0 -19.57,0.62 -30.76,1.87 -11.18,1.24 -19.57,2.48 -25.16,3.73l0 111.84c7.46,1.24 17.4,2.17 29.83,2.79 12.43,0.62 25.48,0.93 39.14,0.93zm-68.97 -219.03c8.7,-2.49 20.04,-4.51 34.02,-6.07 13.98,-1.54 29.98,-2.33 47.99,-2.33 28.59,0 55.46,3.41 80.62,10.25 25.17,6.84 47.07,17.24 65.72,31.23 18.64,13.97 33.39,31.68 44.27,53.13 10.87,21.43 16.31,46.45 16.31,75.03 0,28.59 -4.97,53.29 -14.91,74.1 -9.94,20.82 -24.24,37.9 -42.87,51.27 -18.65,13.35 -40.86,23.3 -66.64,29.83 -25.79,6.52 -54.53,9.79 -86.22,9.79 -41,0 -78.6,-2.02 -112.78,-6.06 -34.17,-4.04 -68.97,-10.41 -104.39,-19.11l0 -475.35 138.88 0 0 174.3zm1075.6 -174.3l0 490.26 -139.81 0c0,-31.07 0.3,-61.98 0.92,-92.74 0.63,-30.76 1.25,-59.19 1.87,-85.29 0.62,-26.1 1.39,-48.93 2.33,-68.5 0.93,-19.57 1.4,-34.02 1.4,-43.34 -18.03,25.48 -36.04,51.26 -54.06,77.36 -18.02,26.1 -35.26,51.72 -51.73,76.9 -16.46,25.16 -32,49.24 -46.6,72.23 -14.6,22.99 -27.49,44.11 -38.68,63.38l-122.11 0 0 -490.26 138.88 0c0,31.07 -0.15,60.74 -0.47,89.01 -0.32,28.27 -0.77,53.91 -1.4,76.9 -0.62,23 -1.24,43.04 -1.86,60.12 -0.62,17.09 -0.93,30.29 -0.93,39.61 37.28,-54.68 71.62,-103.76 102.99,-147.27 31.38,-43.49 61.99,-82.95 91.81,-118.37l117.44 0zm-221.84 -67.11c-19.88,0 -38.99,-2.96 -57.32,-8.86 -18.32,-5.89 -34.95,-14.59 -49.86,-26.1 -14.91,-11.49 -27.18,-25.48 -36.82,-41.94 -9.62,-16.47 -15.38,-35.26 -17.24,-56.39l96.01 -25.17c4.97,23.62 13.2,40.39 24.69,50.33 11.5,9.95 25.02,14.92 40.55,14.92 16.16,0 29.99,-4.51 41.48,-13.52 11.49,-9.01 19.72,-25.94 24.69,-50.8l95.08 25.16c-1.86,21.13 -7.61,39.93 -17.24,56.4 -9.63,16.46 -21.75,30.29 -36.35,41.47 -14.6,11.19 -31.23,19.73 -49.86,25.63 -18.64,5.9 -37.9,8.86 -57.79,8.86zm998.24 443.66l82.95 0 0 253.52 -118.37 0 0 -139.81 -386.81 0 0 -490.26 138.88 0 0 376.55 144.47 0 0 -376.55 138.87 0 0 376.55zm143.54 -127.7c0,-43.49 6.69,-81.55 20.04,-114.18 13.36,-32.62 30.92,-59.8 52.67,-81.55 21.75,-21.75 46.76,-38.22 75.03,-49.4 28.27,-11.19 57.32,-16.78 87.15,-16.78 69.6,0 124.59,21.28 164.98,63.85 40.38,42.56 60.59,105.17 60.59,187.8 0,8.08 -0.32,16.94 -0.93,26.56 -0.62,9.63 -1.24,18.18 -1.87,25.64l-315.03 0c3.1,28.58 16.46,51.26 40.08,68.03 23.61,16.78 55.3,25.17 95.07,25.17 25.48,0 50.49,-2.33 75.04,-6.99 24.54,-4.66 44.58,-10.41 60.12,-17.24l18.64 112.78c-7.45,3.73 -17.4,7.46 -29.83,11.19 -12.43,3.73 -26.25,6.99 -41.47,9.79 -15.22,2.79 -31.54,5.12 -48.94,6.99 -17.4,1.86 -34.79,2.79 -52.19,2.79 -44.12,0 -82.48,-6.52 -115.11,-19.57 -32.62,-13.05 -59.65,-30.91 -81.08,-53.59 -21.44,-22.68 -37.28,-49.56 -47.54,-80.62 -10.25,-31.07 -15.39,-64.62 -15.39,-100.66zm326.23 -53.13c-0.62,-11.81 -2.64,-23.3 -6.06,-34.49 -3.42,-11.18 -8.7,-21.13 -15.85,-29.83 -7.14,-8.7 -16.15,-15.84 -27.03,-21.43 -10.87,-5.59 -24.39,-8.39 -40.54,-8.39 -15.54,0 -28.9,2.64 -40.08,7.93 -11.19,5.28 -20.51,12.28 -27.97,20.97 -7.46,8.7 -13.2,18.79 -17.24,30.29 -4.03,11.49 -6.99,23.14 -8.85,34.95l183.62 0zm663.63 294.53l-138.87 0 0 -193.87 -144.47 0 0 193.87 -138.88 0 0 -490.26 138.88 0 0 182.68 144.47 0 0 -182.68 138.87 0 0 490.26zm535.94 -376.55l-156.59 0 0 376.55 -138.87 0 0 -376.55 -156.6 0 0 -113.71 452.05 0 0 113.71z"/>
   <path class="fil3" d="M15293.16 8504.71c0,-42.87 -9.62,-77.2 -28.89,-102.99 -19.26,-25.79 -47.84,-38.68 -85.75,-38.68 -12.43,0 -23.92,0.47 -34.49,1.39 -10.56,0.93 -19.26,2.02 -26.1,3.26l0 250.73c8.7,5.6 20.04,10.25 34.02,13.98 13.98,3.73 28.12,5.59 42.41,5.59 65.87,0 98.79,-44.43 98.79,-133.28zm141.68 -3.73c0,37.9 -4.66,72.39 -13.98,103.46 -9.32,31.08 -22.99,57.79 -41,80.16 -18.03,22.38 -40.39,39.77 -67.11,52.2 -26.73,12.43 -57.49,18.64 -92.28,18.64 -19.26,0 -37.28,-1.86 -54.06,-5.59 -16.78,-3.73 -32.92,-9.01 -48.46,-15.84l0 184.54 -138.88 0 0 -645.91c12.43,-3.73 26.73,-7.31 42.88,-10.72 16.15,-3.41 33.09,-6.37 50.79,-8.85 17.71,-2.49 35.73,-4.51 54.06,-6.07 18.33,-1.54 35.89,-2.33 52.66,-2.33 40.39,0 76.44,6.06 108.12,18.18 31.7,12.11 58.41,29.21 80.16,51.26 21.75,22.06 38.37,48.94 49.86,80.62 11.49,31.7 17.24,67.11 17.24,106.25z"/>
  </g>
 </g>
</svg>
