<?xml version="1.0" encoding="UTF-8"?>
<!DOCTYPE svg PUBLIC "-//W3C//DTD SVG 1.1//EN" "http://www.w3.org/Graphics/SVG/1.1/DTD/svg11.dtd">
<!-- Creator: CorelDRAW 2017 -->
<svg xmlns="http://www.w3.org/2000/svg" xml:space="preserve" width="162.56mm" height="91.44mm" version="1.1" style="shape-rendering:geometricPrecision; text-rendering:geometricPrecision; image-rendering:optimizeQuality; fill-rule:evenodd; clip-rule:evenodd"
viewBox="0 0 16256 9144"
 xmlns:xlink="http://www.w3.org/1999/xlink">
 <defs>
  <style type="text/css">
   <![CDATA[
    .fil1 {fill:#D9EEF8}
    .fil0 {fill:white}
   ]]>
  </style>
 </defs>
 <g id="Слой_x0020_1">
  <metadata id="CorelCorpID_0Corel-Layer"/>
  <path class="fil0" d="M16.23 9118.6l2084.43 0c-34.91,-1359.64 208.44,-2524.22 761.02,-3709.35 153.35,-328.91 393.36,-789.65 618.87,-1078.36l557.29 -719.96 622.66 -647c213.83,-180.03 323.05,-285.62 567.53,-474.56 1165.5,-900.79 2683.24,-1521.5 4335.23,-1634.18 1497.28,-102.12 2797.13,203.51 3989.71,750.7 554.46,254.4 1011.43,556.95 1483.61,908.85l327.66 267.69c143.14,115.16 659.09,619.77 750.06,737.8 24.17,31.36 45.79,47.98 69.76,78.99 21.06,27.23 47.73,58.49 71.94,78.31l0 -3682.51 -16239.77 0 0 9123.58z"/>
  <path class="fil1" d="M2100.66 9118.6l2778.55 0c-86.27,-1031.54 71.9,-2102.18 440.36,-3015.33l361.73 -768.15c18.31,-36.21 36.14,-65.47 57.39,-101.21 135.35,-227.68 227.63,-367.75 377.66,-584.07l281.85 -362.75c97.36,-108.72 193.65,-232.21 303.38,-341.33 258.78,-257.3 388.06,-388.34 666.94,-612.88l368.76 -276.27c980.47,-647.77 1751.63,-971.23 3024.74,-1156.22 147.74,-21.47 776.13,-65.35 908.93,-54.41 115.84,9.54 365.13,10.38 453.79,23.44 45.72,6.73 112.52,12.51 153.71,15.28 193.86,13.02 386.28,49.84 566.57,79.44 471.04,77.35 1038.39,266.09 1472.04,454.99 433.74,188.94 849.86,425.55 1231.32,704.38 32.6,23.83 60.15,42.22 92.5,66.29 32.73,24.37 57.04,45.34 89.43,69.34l525.69 446.67 0 -28.28c-24.21,-19.82 -50.88,-51.08 -71.94,-78.31 -23.97,-31.01 -45.59,-47.63 -69.76,-78.99 -90.97,-118.03 -606.92,-622.64 -750.06,-737.8l-327.66 -267.69c-472.18,-351.9 -929.15,-654.45 -1483.61,-908.85 -1192.58,-547.19 -2492.43,-852.82 -3989.71,-750.7 -1651.99,112.68 -3169.73,733.39 -4335.23,1634.18 -244.48,188.94 -353.7,294.53 -567.53,474.56l-622.66 647 -557.29 719.96c-138.94,195.56 -347.77,496.89 -618.87,1078.36 -552.58,1185.13 -795.93,2349.71 -761.02,3709.35z"/>
 </g>
</svg>
